<svg width="45" height="45" viewBox="0 0 45 45" fill="none" xmlns="http://www.w3.org/2000/svg">
<rect x="0.5" y="0.5" width="44" height="44" rx="22" fill="white" stroke="#AAA8B6"/>
<path fill-rule="evenodd" clip-rule="evenodd" d="M22.5 37C14.4919 37 8 30.5081 8 22.5C8 14.4919 14.4919 8 22.5 8C30.5081 8 37 14.4919 37 22.5C37 30.5081 30.5081 37 22.5 37ZM23.127 18.8817C21.8283 19.4218 19.2329 20.5398 15.3405 22.2356C14.7085 22.487 14.3774 22.7329 14.3473 22.9733C14.2963 23.3796 14.8052 23.5396 15.4981 23.7575C15.5923 23.7872 15.69 23.8179 15.7901 23.8504C16.4718 24.072 17.3889 24.3313 17.8656 24.3416C18.298 24.3509 18.7807 24.1726 19.3135 23.8067C22.9502 21.3518 24.8275 20.111 24.9454 20.0843C25.0285 20.0654 25.1437 20.0417 25.2218 20.1111C25.2999 20.1805 25.2922 20.3119 25.2839 20.3471C25.2335 20.562 23.2361 22.419 22.2025 23.3799C21.8803 23.6795 21.6517 23.892 21.605 23.9406C21.5003 24.0493 21.3936 24.1521 21.2911 24.251C20.6577 24.8615 20.1828 25.3193 21.3174 26.067C21.8626 26.4263 22.2989 26.7234 22.7341 27.0198C23.2095 27.3435 23.6836 27.6664 24.297 28.0685C24.4533 28.171 24.6026 28.2774 24.748 28.381C25.3012 28.7754 25.7981 29.1297 26.4121 29.0732C26.7689 29.0404 27.1375 28.7049 27.3246 27.7043C27.7669 25.3397 28.6364 20.2163 28.8373 18.1051C28.8549 17.9201 28.8328 17.6834 28.815 17.5795C28.7972 17.4756 28.76 17.3275 28.625 17.2179C28.465 17.0881 28.218 17.0607 28.1076 17.0626C27.6054 17.0715 26.8349 17.3394 23.127 18.8817Z" fill="#436CEF"/>
</svg>
