<svg width="285" height="74" viewBox="0 0 285 74" fill="none" xmlns="http://www.w3.org/2000/svg">
<path d="M6.4529 44.4242V33.9326H17.0322C19.9879 33.9326 22.1535 33.0111 23.529 31.1674C24.9337 29.3237 25.6361 26.529 25.6361 22.7826V22.6511C25.6361 18.8468 24.9337 16.0521 23.529 14.2669C22.1535 12.4521 20.0026 11.5453 17.0761 11.5453H6.4529V0.922113H19.4465C23.6022 0.922113 27.1139 1.80001 29.9819 3.5558C32.8498 5.31158 35.0155 7.82843 36.4787 11.1063C37.9712 14.3547 38.7173 18.2026 38.7173 22.6511V22.739C38.7173 27.2163 37.9712 31.0795 36.4787 34.3279C35.0155 37.5469 32.8498 40.0342 29.9819 41.7905C27.1139 43.5463 23.6022 44.4242 19.4465 44.4242H6.4529ZM0 64.2658V0.922113H12.9058V64.2658H0ZM41.5515 64.2658V0.922113H74.0357V11.9842H54.4573V27.1284H72.982V37.4005H54.4573V53.2037H74.0357V64.2658H41.5515ZM87.9757 64.2658V11.9842H75.5525V0.922113H113.304V11.9842H100.881V64.2658H87.9757ZM115.524 64.2658V0.922113H135.278C139.55 0.922113 143.106 1.66842 145.945 3.16053C148.784 4.62369 150.905 6.80422 152.31 9.70159C153.744 12.5984 154.461 16.1253 154.461 20.2805V20.4121C154.461 24.5095 153.7 28.08 152.178 31.1232C150.656 34.1668 148.535 36.3911 145.813 37.7958L155.646 64.2658H141.906L133.521 40.4295C133.317 40.4295 133.112 40.4295 132.907 40.4295C132.703 40.4295 132.497 40.4295 132.293 40.4295H128.429V64.2658H115.524ZM128.429 30.9037H133.521C136.126 30.9037 138.058 30.1137 139.316 28.5332C140.604 26.9237 141.248 24.4511 141.248 21.1147V21.0269C141.248 17.72 140.604 15.2763 139.316 13.6958C138.028 12.0863 136.126 11.2816 133.609 11.2816H128.429V30.9037ZM178.497 65.1879C173.698 65.1879 169.659 63.9584 166.381 61.5C163.133 59.0126 160.66 55.3547 158.963 50.5258C157.295 45.6974 156.461 39.7416 156.461 32.6595V32.5721C156.461 25.519 157.295 19.5784 158.963 14.7495C160.66 9.92106 163.133 6.26263 166.381 3.77527C169.659 1.25842 173.698 0 178.497 0C183.267 0 187.291 1.25842 190.569 3.77527C193.847 6.26263 196.319 9.92106 197.988 14.7495C199.656 19.5784 200.49 25.519 200.49 32.5721V32.6595C200.49 39.7416 199.656 45.6974 197.988 50.5258C196.319 55.3547 193.847 59.0126 190.569 61.5C187.291 63.9584 183.267 65.1879 178.497 65.1879ZM178.497 53.8184C180.429 53.8184 182.038 53.0721 183.326 51.5795C184.643 50.0868 185.623 47.7895 186.267 44.6874C186.94 41.5563 187.277 37.5468 187.277 32.6595V32.5721C187.277 27.6847 186.94 23.69 186.267 20.5879C185.623 17.4563 184.643 15.1447 183.326 13.6521C182.009 12.1305 180.399 11.3695 178.497 11.3695C176.566 11.3695 174.941 12.1305 173.625 13.6521C172.337 15.1447 171.357 17.4563 170.684 20.5879C170.01 23.69 169.674 27.6847 169.674 32.5721V32.6595C169.674 37.5763 170.01 41.5853 170.684 44.6874C171.357 47.7895 172.337 50.0868 173.625 51.5795C174.912 53.0721 176.536 53.8184 178.497 53.8184ZM214.21 64.2658L199.812 0.922113H213.245L222.419 50.4821H222.639L231.813 0.922113H245.246L230.847 64.2658H214.21ZM239.388 64.2658L253.874 0.922113H266.429V14.53H262.039L252.689 64.2658H239.388ZM248.694 51.1842L250.757 41.1758H273.584L275.647 51.1842H248.694ZM271.653 64.2658L262.259 14.53V0.922113H270.424L284.954 64.2658H271.653Z" fill="#AEDDFB"/>
<g opacity="0.85">
<path d="M43.3023 65.2581H38.2462V62.0606H52.8318V65.2581H47.7756V73.7795H43.3023V65.2581Z" fill="#6D6D6D"/>
<path d="M66.9537 62.0606V64.9273H58.4008V66.3922H66.7804V69.2432H58.4008V70.8498H67.0797V73.7795H53.9905V62.0606H66.9537Z" fill="#6D6D6D"/>
<path d="M72.846 62.0606V70.4245H80.9736V73.7795H68.3727V62.0606H72.846Z" fill="#6D6D6D"/>
<path d="M95.1182 62.0606V64.9273H86.5653V66.3922H94.9449V69.2432H86.5653V70.8498H95.2442V73.7795H82.155V62.0606H95.1182Z" fill="#6D6D6D"/>
<path d="M104.035 74C102.964 74 102.024 73.9108 101.216 73.7322C100.418 73.5537 99.7245 73.3175 99.1365 73.0234C98.5484 72.7189 98.0602 72.3724 97.6716 71.9839C97.2936 71.5848 96.9891 71.1648 96.7581 70.7238C96.527 70.2827 96.3643 69.8364 96.2698 69.3849C96.1753 68.9334 96.128 68.5028 96.128 68.0933V67.6523C96.128 67.2322 96.17 66.7965 96.254 66.3449C96.3485 65.8934 96.5113 65.4524 96.7423 65.0218C96.9733 64.5913 97.2883 64.187 97.6874 63.809C98.0864 63.4205 98.5904 63.0792 99.1995 62.7852C99.819 62.4911 100.554 62.2601 101.405 62.0921C102.266 61.9241 103.274 61.8401 104.429 61.8401H105.043C106.24 61.8401 107.269 61.9136 108.13 62.0606C109.002 62.2076 109.742 62.4071 110.351 62.6592C110.96 62.9007 111.449 63.1789 111.816 63.494C112.194 63.7985 112.488 64.1188 112.698 64.4548C112.919 64.7908 113.066 65.1268 113.139 65.4629C113.213 65.7884 113.255 66.0877 113.265 66.3607V66.3764H108.603C108.582 66.3029 108.524 66.1874 108.43 66.0299C108.346 65.8619 108.172 65.6939 107.91 65.5259C107.647 65.3579 107.269 65.2108 106.776 65.0848C106.293 64.9588 105.636 64.8958 104.807 64.8958C104.019 64.8958 103.363 64.9746 102.838 65.1321C102.323 65.2896 101.909 65.5049 101.594 65.7779C101.289 66.0404 101.074 66.3449 100.948 66.6915C100.822 67.038 100.759 67.4055 100.759 67.794V67.9673C100.759 68.3453 100.832 68.7129 100.979 69.0699C101.126 69.4164 101.357 69.7314 101.672 70.015C101.998 70.288 102.413 70.5085 102.917 70.6765C103.431 70.8445 104.051 70.9285 104.775 70.9285C105.531 70.9285 106.162 70.8708 106.666 70.7553C107.18 70.6398 107.595 70.5032 107.91 70.3457C108.225 70.1777 108.445 70.015 108.571 69.8574C108.708 69.6894 108.776 69.5582 108.776 69.4637H104.665V67.1797H113.344V73.7795H110.525C110.504 73.685 110.472 73.5695 110.43 73.433C110.399 73.286 110.357 73.139 110.304 72.9919C110.252 72.8344 110.194 72.6822 110.131 72.5352C110.078 72.3881 110.026 72.2621 109.973 72.1571C109.858 72.2831 109.674 72.4511 109.422 72.6612C109.17 72.8712 108.823 73.0759 108.382 73.2755C107.941 73.4645 107.395 73.6325 106.744 73.7795C106.093 73.9265 105.311 74 104.397 74H104.035Z" fill="#6D6D6D"/>
<path d="M119.254 66.9277H124.388C124.882 66.9277 125.229 66.8332 125.428 66.6442C125.638 66.4447 125.743 66.2032 125.743 65.9196V65.9039C125.743 65.6309 125.643 65.3999 125.444 65.2108C125.244 65.0113 124.893 64.9116 124.388 64.9116H119.254V66.9277ZM119.254 73.7795H114.78V62.0606H125.428C127.14 62.0606 128.389 62.3231 129.177 62.8482C129.964 63.3732 130.358 64.1135 130.358 65.0691V65.2423C130.358 65.6729 130.274 66.0404 130.106 66.3449C129.949 66.6495 129.749 66.9067 129.508 67.1167C129.266 67.3163 129.009 67.479 128.736 67.605C128.463 67.7205 128.216 67.8045 127.996 67.857C128.72 68.0251 129.303 68.3453 129.744 68.8179C130.185 69.2799 130.405 69.889 130.405 70.645V72.3776C130.405 72.7872 130.426 73.0864 130.468 73.2755C130.521 73.454 130.573 73.5957 130.626 73.7007V73.7795H126.058C126.006 73.7165 125.969 73.643 125.948 73.559C125.927 73.4645 125.916 73.3332 125.916 73.1652V71.7948C125.916 71.1228 125.738 70.6188 125.381 70.2827C125.034 69.9362 124.42 69.7629 123.538 69.7629H119.254V73.7795Z" fill="#6D6D6D"/>
<path d="M139.511 64.9273L137.589 68.9596H141.48L139.511 64.9273ZM142.913 71.8894H136.219L135.321 73.7795H130.785L136.581 62.0606H142.598L148.725 73.7795H143.827L142.913 71.8894Z" fill="#6D6D6D"/>
<path d="M149.236 62.0606H155.379L158.97 68.6446L162.625 62.0606H168.515V73.7795H164.089V66.4709L159.978 73.7795H157.694L153.599 66.4709V73.7795H149.236V62.0606Z" fill="#6D6D6D"/>
<path d="M177.751 64.9273L175.829 68.9596H179.72L177.751 64.9273ZM181.153 71.8894H174.459L173.561 73.7795H169.024L174.821 62.0606H180.838L186.965 73.7795H182.066L181.153 71.8894Z" fill="#6D6D6D"/>
<path d="M189.739 65.2581H184.683V62.0606H199.269V65.2581H194.213V73.7795H189.739V65.2581Z" fill="#6D6D6D"/>
<path d="M204.885 73.7795H200.427V62.0606H204.885V73.7795Z" fill="#6D6D6D"/>
<path d="M214.287 74C213.09 74 212.05 73.9055 211.168 73.7165C210.297 73.5275 209.551 73.2807 208.932 72.9762C208.323 72.6612 207.824 72.2989 207.435 71.8894C207.057 71.4798 206.758 71.0598 206.537 70.6293C206.327 70.1882 206.186 69.7524 206.112 69.3219C206.039 68.8809 206.002 68.4766 206.002 68.1091V67.6523C206.002 67.2848 206.033 66.8857 206.096 66.4552C206.17 66.0142 206.312 65.5784 206.522 65.1478C206.732 64.7173 207.026 64.3025 207.404 63.9035C207.782 63.5045 208.275 63.1527 208.884 62.8482C209.504 62.5436 210.255 62.3021 211.137 62.1236C212.019 61.9346 213.069 61.8401 214.287 61.8401H214.901C216.088 61.8401 217.112 61.9241 217.973 62.0921C218.844 62.2496 219.579 62.4649 220.178 62.7379C220.787 63.0004 221.275 63.3049 221.643 63.6515C222.021 63.9875 222.315 64.334 222.525 64.6911C222.735 65.0376 222.877 65.3789 222.95 65.7149C223.024 66.0404 223.06 66.3292 223.06 66.5812V66.786H218.414C218.393 66.7125 218.34 66.5759 218.256 66.3764C218.172 66.1769 217.994 65.9774 217.721 65.7779C217.458 65.5679 217.075 65.3841 216.571 65.2266C216.077 65.0691 215.405 64.9903 214.555 64.9903C213.746 64.9903 213.085 65.0743 212.57 65.2423C212.066 65.3999 211.667 65.6099 211.373 65.8724C211.09 66.1349 210.895 66.4289 210.79 66.7545C210.685 67.08 210.633 67.4055 210.633 67.731V67.9201C210.633 68.2351 210.69 68.5659 210.806 68.9124C210.921 69.2484 211.126 69.5634 211.42 69.8574C211.714 70.141 212.113 70.3772 212.617 70.5663C213.132 70.7448 213.783 70.834 214.571 70.834C215.148 70.834 215.642 70.792 216.051 70.708C216.461 70.624 216.807 70.519 217.091 70.393C217.374 70.267 217.6 70.1305 217.768 69.9835C217.936 69.8259 218.067 69.6789 218.162 69.5424C218.256 69.3954 218.319 69.2642 218.351 69.1486C218.393 69.0331 218.419 68.9544 218.43 68.9124H223.06V69.1644C223.06 69.4164 223.024 69.7157 222.95 70.0622C222.877 70.3982 222.73 70.7448 222.509 71.1018C222.299 71.4588 222.005 71.8106 221.627 72.1571C221.249 72.5037 220.755 72.8134 220.146 73.0864C219.548 73.3595 218.818 73.58 217.957 73.748C217.096 73.916 216.077 74 214.901 74H214.287Z" fill="#6D6D6D"/>
<path d="M230.972 64.9273L229.051 68.9596H232.941L230.972 64.9273ZM234.375 71.8894H227.68L226.783 73.7795H222.246L228.043 62.0606H234.06L240.187 73.7795H235.288L234.375 71.8894Z" fill="#6D6D6D"/>
</g>
</svg>
