<svg width="1920" height="440" viewBox="0 0 1920 440" fill="none" xmlns="http://www.w3.org/2000/svg">
<path d="M43.4792 299.328V228.636H114.762C134.678 228.636 149.269 222.427 158.537 210.004C168.002 197.581 172.734 178.75 172.734 153.508V152.621C172.734 126.989 168.002 108.158 158.537 96.1292C149.269 83.9016 134.776 77.7913 115.057 77.7913H43.4792V6.21314H131.03C159.03 6.21314 182.692 12.1283 202.016 23.9587C221.34 35.7891 235.932 52.7475 245.791 74.8337C255.848 96.7214 260.875 122.648 260.875 152.621V153.214C260.875 183.382 255.848 209.412 245.791 231.299C235.932 252.988 221.34 269.748 202.016 281.582C182.692 293.412 159.03 299.328 131.03 299.328H43.4792ZM0 433.019V6.21314H86.9588V433.019H0ZM279.971 433.019V6.21314H498.848V80.7489H366.93V182.79H491.748V252.002H366.93V358.483H498.848V433.019H279.971ZM592.775 433.019V80.7489H509.068V6.21314H763.436V80.7489H679.733V433.019H592.775ZM778.391 433.019V6.21314H911.494C940.282 6.21314 964.241 11.2417 983.366 21.2955C1002.49 31.1541 1016.79 45.8464 1026.25 65.3687C1035.91 84.8874 1040.75 108.651 1040.75 136.649V137.536C1040.75 165.143 1035.62 189.201 1025.37 209.706C1015.11 230.214 1000.82 245.201 982.48 254.666L1048.73 433.019H956.155L899.66 272.411C898.28 272.411 896.901 272.411 895.521 272.411C894.142 272.411 892.759 272.411 891.379 272.411H865.349V433.019H778.391ZM865.349 208.227H899.66C917.21 208.227 930.225 202.904 938.704 192.255C947.378 181.41 951.719 164.75 951.719 142.27V141.678C951.719 119.396 947.378 102.931 938.704 92.2814C930.026 81.4369 917.21 76.0146 900.252 76.0146H865.349V208.227ZM1202.7 439.232C1170.37 439.232 1143.15 430.948 1121.07 414.383C1099.18 397.624 1082.52 372.977 1071.08 340.44C1059.84 307.906 1054.22 267.776 1054.22 220.058V219.469C1054.22 171.945 1059.84 131.918 1071.08 99.3811C1082.52 66.8475 1099.18 42.1972 1121.07 25.4375C1143.15 8.47918 1170.37 0 1202.7 0C1234.84 0 1261.96 8.47918 1284.04 25.4375C1306.13 42.1972 1322.79 66.8475 1334.03 99.3811C1345.27 131.918 1350.89 171.945 1350.89 219.469V220.058C1350.89 267.776 1345.27 307.906 1334.03 340.44C1322.79 372.977 1306.13 397.624 1284.04 414.383C1261.96 430.948 1234.84 439.232 1202.7 439.232ZM1202.7 362.625C1215.72 362.625 1226.56 357.597 1235.24 347.539C1244.11 337.482 1250.72 322.003 1255.06 301.101C1259.59 280.004 1261.86 252.988 1261.86 220.058V219.469C1261.86 186.538 1259.59 159.622 1255.06 138.72C1250.72 117.62 1244.11 102.044 1235.24 91.9871C1226.36 81.7348 1215.52 76.6069 1202.7 76.6069C1189.69 76.6069 1178.75 81.7348 1169.87 91.9871C1161.19 102.044 1154.59 117.62 1150.06 138.72C1145.52 159.622 1143.25 186.538 1143.25 219.469V220.058C1143.25 253.187 1145.52 280.199 1150.06 301.101C1154.59 322.003 1161.19 337.482 1169.87 347.539C1178.55 357.597 1189.49 362.625 1202.7 362.625ZM1443.34 433.019L1346.32 6.21314H1436.83L1498.65 340.145H1500.13L1561.94 6.21314H1652.45L1555.43 433.019H1443.34ZM1612.98 433.019L1710.59 6.21314H1795.18V97.9023H1765.61L1702.6 433.019H1612.98ZM1675.69 344.876L1689.59 277.44H1843.39L1857.29 344.876H1675.69ZM1830.38 433.019L1767.08 97.9023V6.21314H1822.1L1920 433.019H1830.38Z" fill="#AEDDFB" fill-opacity="0.2"/>
</svg>
