<svg width="350" height="89" viewBox="0 0 350 89" fill="none" xmlns="http://www.w3.org/2000/svg">
<g filter="url(#filter0_d_77_42)">
<path d="M23.4875 14.4V8.2C24.8209 8.12 25.9942 7.93333 27.0075 7.64C28.0209 7.32 28.9009 6.90666 29.6475 6.4C30.4209 5.89333 31.0742 5.29333 31.6075 4.6C32.1409 3.88 32.5809 3.09333 32.9275 2.24H41.9675V32H30.6875V14.4H23.4875ZM63.1375 32.56C60.3642 32.56 57.9909 32.3867 56.0175 32.04C54.0709 31.6933 52.4309 31.24 51.0975 30.68C49.7909 30.12 48.7375 29.4933 47.9375 28.8C47.1642 28.08 46.5775 27.36 46.1775 26.64C45.7775 25.92 45.5109 25.2267 45.3775 24.56C45.2709 23.8667 45.2175 23.28 45.2175 22.8V22.52H57.0175C57.0442 22.6267 57.1242 22.8267 57.2575 23.12C57.4175 23.4133 57.7242 23.72 58.1775 24.04C58.6575 24.3333 59.3509 24.6 60.2575 24.84C61.1909 25.08 62.4575 25.2 64.0575 25.2C65.4975 25.2 66.6575 25.1067 67.5375 24.92C68.4175 24.7067 69.0975 24.44 69.5775 24.12C70.0575 23.8 70.3775 23.44 70.5375 23.04C70.6975 22.6133 70.7775 22.2 70.7775 21.8V21.64C70.7775 21.24 70.6975 20.84 70.5375 20.44C70.3775 20.04 70.0575 19.68 69.5775 19.36C69.0975 19.04 68.4175 18.7867 67.5375 18.6C66.6575 18.3867 65.4975 18.28 64.0575 18.28C62.4842 18.28 61.2309 18.3867 60.2975 18.6C59.3642 18.8133 58.6575 19.0667 58.1775 19.36C57.6975 19.6267 57.3775 19.88 57.2175 20.12C57.0575 20.36 56.9642 20.52 56.9375 20.6H45.7775V2.24H80.4975V9.48H57.0175V14.32C57.1775 14.1867 57.4842 13.9733 57.9375 13.68C58.3909 13.3867 59.0309 13.0933 59.8575 12.8C60.7109 12.5067 61.7642 12.2533 63.0175 12.04C64.2709 11.8 65.7775 11.68 67.5375 11.68H67.8975C70.8842 11.68 73.3242 11.9467 75.2175 12.48C77.1375 13.0133 78.6442 13.7333 79.7375 14.64C80.8309 15.52 81.5775 16.56 81.9775 17.76C82.3775 18.96 82.5775 20.2267 82.5775 21.56V21.8C82.5775 22.6267 82.4842 23.4667 82.2975 24.32C82.1109 25.1733 81.7775 26 81.2975 26.8C80.8175 27.5733 80.1509 28.32 79.2975 29.04C78.4709 29.7333 77.4042 30.3467 76.0975 30.88C74.8175 31.3867 73.2709 31.7867 71.4575 32.08C69.6442 32.4 67.5109 32.56 65.0575 32.56H63.1375ZM110.615 11.92C110.615 11.5733 110.508 11.2267 110.295 10.88C110.108 10.5067 109.722 10.1867 109.135 9.92C108.575 9.62667 107.775 9.38667 106.735 9.2C105.722 9.01333 104.388 8.92 102.735 8.92C101.055 8.92 99.7084 9.01333 98.695 9.2C97.6817 9.36 96.895 9.58667 96.335 9.88C95.8017 10.1733 95.4417 10.5067 95.255 10.88C95.0684 11.2267 94.975 11.5733 94.975 11.92V12C94.975 12.3467 95.0684 12.7067 95.255 13.08C95.4417 13.4267 95.8017 13.7467 96.335 14.04C96.895 14.3067 97.6817 14.5333 98.695 14.72C99.7084 14.9067 101.055 15 102.735 15C104.415 15 105.762 14.9067 106.775 14.72C107.815 14.5333 108.615 14.3067 109.175 14.04C109.735 13.7467 110.108 13.4267 110.295 13.08C110.508 12.7067 110.615 12.3467 110.615 12V11.92ZM102.455 32.6C98.8284 32.6 95.855 32.2933 93.535 31.68C91.215 31.04 89.375 30.2533 88.015 29.32C86.6817 28.36 85.7617 27.3333 85.255 26.24C84.7484 25.12 84.495 24.0933 84.495 23.16V22.96H95.975C96.0284 23.0933 96.1484 23.2933 96.335 23.56C96.5217 23.8 96.855 24.0667 97.335 24.36C97.8417 24.6267 98.535 24.8667 99.415 25.08C100.322 25.2667 101.508 25.36 102.975 25.36C104.842 25.36 106.348 25.12 107.495 24.64C108.642 24.16 109.522 23.5867 110.135 22.92C110.748 22.2267 111.148 21.52 111.335 20.8C111.548 20.0533 111.655 19.4133 111.655 18.88V18.72C111.442 18.88 111.095 19.12 110.615 19.44C110.135 19.7333 109.428 20.04 108.495 20.36C107.588 20.68 106.428 20.96 105.015 21.2C103.602 21.44 101.868 21.56 99.815 21.56H99.295C96.2017 21.56 93.615 21.3067 91.535 20.8C89.4817 20.2933 87.8284 19.6133 86.575 18.76C85.3484 17.9067 84.4684 16.92 83.935 15.8C83.4284 14.6533 83.175 13.4533 83.175 12.2V11.84C83.175 11.0667 83.255 10.28 83.415 9.48C83.575 8.68 83.895 7.90666 84.375 7.16C84.855 6.38667 85.5217 5.68 86.375 5.04C87.2284 4.37333 88.335 3.8 89.695 3.32C91.055 2.81333 92.7217 2.41333 94.695 2.12C96.6684 1.82667 99.0017 1.68 101.695 1.68H103.495C106.268 1.68 108.668 1.89333 110.695 2.32C112.748 2.72 114.508 3.28 115.975 4C117.442 4.72 118.642 5.57333 119.575 6.56C120.508 7.52 121.242 8.54667 121.775 9.64C122.308 10.7333 122.668 11.88 122.855 13.08C123.068 14.2533 123.175 15.4 123.175 16.52V17.48C123.175 18.52 123.082 19.6267 122.895 20.8C122.708 21.9467 122.362 23.08 121.855 24.2C121.375 25.32 120.682 26.3867 119.775 27.4C118.895 28.4133 117.748 29.3067 116.335 30.08C114.948 30.8533 113.255 31.4667 111.255 31.92C109.255 32.3733 106.895 32.6 104.175 32.6H102.455ZM180.803 17.68C180.803 18.5867 180.71 19.5867 180.523 20.68C180.336 21.7467 179.976 22.84 179.443 23.96C178.936 25.0533 178.203 26.12 177.243 27.16C176.283 28.1733 175.03 29.0933 173.483 29.92C171.936 30.72 170.043 31.36 167.803 31.84C165.59 32.32 162.963 32.56 159.923 32.56H158.123C155.056 32.56 152.416 32.32 150.203 31.84C147.99 31.36 146.096 30.72 144.523 29.92C142.976 29.0933 141.723 28.1733 140.763 27.16C139.803 26.12 139.056 25.0533 138.523 23.96C138.016 22.84 137.67 21.7467 137.483 20.68C137.296 19.5867 137.203 18.5867 137.203 17.68V16.48C137.203 15.5733 137.296 14.5733 137.483 13.48C137.67 12.3867 138.016 11.2933 138.523 10.2C139.056 9.10667 139.803 8.05333 140.763 7.04C141.723 6 142.976 5.09333 144.523 4.32C146.096 3.52 147.99 2.88 150.203 2.4C152.416 1.92 155.056 1.68 158.123 1.68H159.923C162.963 1.68 165.59 1.92 167.803 2.4C170.043 2.88 171.936 3.52 173.483 4.32C175.03 5.09333 176.283 6 177.243 7.04C178.203 8.05333 178.936 9.10667 179.443 10.2C179.976 11.2933 180.336 12.3867 180.523 13.48C180.71 14.5733 180.803 15.5733 180.803 16.48V17.68ZM169.003 16.72C169.003 15.9467 168.856 15.1467 168.563 14.32C168.27 13.4933 167.75 12.7333 167.003 12.04C166.256 11.3467 165.23 10.7867 163.923 10.36C162.643 9.90667 161.003 9.68 159.003 9.68C156.95 9.68 155.27 9.90667 153.963 10.36C152.656 10.7867 151.63 11.3467 150.883 12.04C150.163 12.7333 149.656 13.4933 149.363 14.32C149.096 15.1467 148.963 15.9467 148.963 16.72V17.2C148.963 17.9733 149.11 18.7867 149.403 19.64C149.696 20.4933 150.216 21.28 150.963 22C151.71 22.72 152.736 23.32 154.043 23.8C155.35 24.2533 157.003 24.48 159.003 24.48C161.003 24.48 162.643 24.2533 163.923 23.8C165.23 23.32 166.256 22.7333 167.003 22.04C167.75 21.32 168.27 20.5333 168.563 19.68C168.856 18.8267 169.003 18.0133 169.003 17.24V16.72ZM226.233 17.68C226.233 18.5867 226.14 19.5867 225.953 20.68C225.766 21.7467 225.406 22.84 224.873 23.96C224.366 25.0533 223.633 26.12 222.673 27.16C221.713 28.1733 220.46 29.0933 218.913 29.92C217.366 30.72 215.473 31.36 213.233 31.84C211.02 32.32 208.393 32.56 205.353 32.56H203.553C200.486 32.56 197.846 32.32 195.633 31.84C193.42 31.36 191.526 30.72 189.953 29.92C188.406 29.0933 187.153 28.1733 186.193 27.16C185.233 26.12 184.486 25.0533 183.953 23.96C183.446 22.84 183.1 21.7467 182.913 20.68C182.726 19.5867 182.633 18.5867 182.633 17.68V16.48C182.633 15.5733 182.726 14.5733 182.913 13.48C183.1 12.3867 183.446 11.2933 183.953 10.2C184.486 9.10667 185.233 8.05333 186.193 7.04C187.153 6 188.406 5.09333 189.953 4.32C191.526 3.52 193.42 2.88 195.633 2.4C197.846 1.92 200.486 1.68 203.553 1.68H205.353C208.393 1.68 211.02 1.92 213.233 2.4C215.473 2.88 217.366 3.52 218.913 4.32C220.46 5.09333 221.713 6 222.673 7.04C223.633 8.05333 224.366 9.10667 224.873 10.2C225.406 11.2933 225.766 12.3867 225.953 13.48C226.14 14.5733 226.233 15.5733 226.233 16.48V17.68ZM214.433 16.72C214.433 15.9467 214.286 15.1467 213.993 14.32C213.7 13.4933 213.18 12.7333 212.433 12.04C211.686 11.3467 210.66 10.7867 209.353 10.36C208.073 9.90667 206.433 9.68 204.433 9.68C202.38 9.68 200.7 9.90667 199.393 10.36C198.086 10.7867 197.06 11.3467 196.313 12.04C195.593 12.7333 195.086 13.4933 194.793 14.32C194.526 15.1467 194.393 15.9467 194.393 16.72V17.2C194.393 17.9733 194.54 18.7867 194.833 19.64C195.126 20.4933 195.646 21.28 196.393 22C197.14 22.72 198.166 23.32 199.473 23.8C200.78 24.2533 202.433 24.48 204.433 24.48C206.433 24.48 208.073 24.2533 209.353 23.8C210.66 23.32 211.686 22.7333 212.433 22.04C213.18 21.32 213.7 20.5333 213.993 19.68C214.286 18.8267 214.433 18.0133 214.433 17.24V16.72ZM271.663 17.68C271.663 18.5867 271.569 19.5867 271.383 20.68C271.196 21.7467 270.836 22.84 270.303 23.96C269.796 25.0533 269.063 26.12 268.103 27.16C267.143 28.1733 265.889 29.0933 264.343 29.92C262.796 30.72 260.903 31.36 258.663 31.84C256.449 32.32 253.823 32.56 250.783 32.56H248.983C245.916 32.56 243.276 32.32 241.063 31.84C238.849 31.36 236.956 30.72 235.383 29.92C233.836 29.0933 232.583 28.1733 231.623 27.16C230.663 26.12 229.916 25.0533 229.383 23.96C228.876 22.84 228.529 21.7467 228.343 20.68C228.156 19.5867 228.063 18.5867 228.063 17.68V16.48C228.063 15.5733 228.156 14.5733 228.343 13.48C228.529 12.3867 228.876 11.2933 229.383 10.2C229.916 9.10667 230.663 8.05333 231.623 7.04C232.583 6 233.836 5.09333 235.383 4.32C236.956 3.52 238.849 2.88 241.063 2.4C243.276 1.92 245.916 1.68 248.983 1.68H250.783C253.823 1.68 256.449 1.92 258.663 2.4C260.903 2.88 262.796 3.52 264.343 4.32C265.889 5.09333 267.143 6 268.103 7.04C269.063 8.05333 269.796 9.10667 270.303 10.2C270.836 11.2933 271.196 12.3867 271.383 13.48C271.569 14.5733 271.663 15.5733 271.663 16.48V17.68ZM259.863 16.72C259.863 15.9467 259.716 15.1467 259.423 14.32C259.129 13.4933 258.609 12.7333 257.863 12.04C257.116 11.3467 256.089 10.7867 254.783 10.36C253.503 9.90667 251.863 9.68 249.863 9.68C247.809 9.68 246.129 9.90667 244.823 10.36C243.516 10.7867 242.489 11.3467 241.743 12.04C241.023 12.7333 240.516 13.4933 240.223 14.32C239.956 15.1467 239.823 15.9467 239.823 16.72V17.2C239.823 17.9733 239.969 18.7867 240.263 19.64C240.556 20.4933 241.076 21.28 241.823 22C242.569 22.72 243.596 23.32 244.903 23.8C246.209 24.2533 247.863 24.48 249.863 24.48C251.863 24.48 253.503 24.2533 254.783 23.8C256.089 23.32 257.116 22.7333 257.863 22.04C258.609 21.32 259.129 20.5333 259.423 19.68C259.716 18.8267 259.863 18.0133 259.863 17.24V16.72ZM315.732 12.72C315.732 14.08 315.506 15.36 315.052 16.56C314.599 17.76 313.826 18.8133 312.732 19.72C311.666 20.6267 310.226 21.3467 308.412 21.88C306.599 22.4133 304.332 22.68 301.612 22.68H288.132V24.64H303.732V28.16H288.132V32H276.812V28.16H272.812V24.64H276.812V22.68H272.812V19.2H276.812V2.24H301.612C304.359 2.24 306.639 2.49333 308.452 3C310.266 3.50667 311.706 4.21333 312.772 5.12C313.866 6 314.626 7.04 315.052 8.24C315.506 9.44 315.732 10.72 315.732 12.08V12.72ZM288.132 16.2H300.212C301.546 16.2 302.506 15.92 303.092 15.36C303.679 14.7733 303.972 13.9867 303.972 13V12.88C303.972 11.8933 303.679 11.12 303.092 10.56C302.532 9.97333 301.572 9.68 300.212 9.68H288.132V16.2Z" fill="white"/>
<path d="M1.90426 79V64.474H12.6503C14.1983 64.474 15.5033 64.546 16.5653 64.69C17.6273 64.834 18.4823 65.05 19.1303 65.338C19.7783 65.626 20.2373 65.986 20.5073 66.418C20.7953 66.832 20.9393 67.309 20.9393 67.849V68.119C20.9393 68.911 20.6423 69.559 20.0483 70.063C19.4723 70.567 18.6803 70.936 17.6723 71.17C18.1763 71.278 18.6623 71.431 19.1303 71.629C19.6163 71.809 20.0393 72.043 20.3993 72.331C20.7773 72.619 21.0743 72.961 21.2903 73.357C21.5063 73.735 21.6143 74.158 21.6143 74.626V74.896C21.6143 75.472 21.4793 76.012 21.2093 76.516C20.9573 77.002 20.5343 77.434 19.9403 77.812C19.3643 78.172 18.5993 78.46 17.6453 78.676C16.7093 78.892 15.5573 79 14.1893 79H1.90426ZM12.3533 69.847C13.2893 69.847 13.9283 69.757 14.2703 69.577C14.6303 69.397 14.8103 69.127 14.8103 68.767V68.686C14.8103 68.344 14.6303 68.092 14.2703 67.93C13.9283 67.75 13.2803 67.66 12.3263 67.66H7.92526V69.847H12.3533ZM12.8933 75.733C14.6213 75.733 15.4853 75.265 15.4853 74.329V74.194C15.4853 73.33 14.6123 72.898 12.8663 72.898H7.92526V75.733H12.8933ZM29.0886 70.684V79H23.4726V64.474H30.7626L36.1896 72.871L41.7246 64.474H48.7716V79H42.7506V70.765L37.4046 79H34.4346L29.0886 70.684ZM61.4182 67.444C59.9062 67.444 58.7812 67.66 58.0432 68.092C57.3052 68.524 56.8192 69.127 56.5852 69.901H66.3052C66.1072 69.127 65.6302 68.524 64.8742 68.092C64.1182 67.66 62.9752 67.444 61.4452 67.444H61.4182ZM72.2992 73.897C72.2992 74.383 72.1822 74.95 71.9482 75.598C71.7322 76.228 71.2732 76.831 70.5712 77.407C69.8692 77.965 68.8612 78.442 67.5472 78.838C66.2332 79.216 64.4962 79.405 62.3362 79.405H60.7972C58.8532 79.405 57.2242 79.198 55.9102 78.784C54.6142 78.37 53.5702 77.821 52.7782 77.137C51.9862 76.435 51.4192 75.643 51.0772 74.761C50.7352 73.861 50.5642 72.934 50.5642 71.98V71.386C50.5642 70.45 50.7172 69.55 51.0232 68.686C51.3472 67.804 51.8872 67.021 52.6432 66.337C53.4172 65.653 54.4522 65.104 55.7482 64.69C57.0442 64.276 58.6732 64.069 60.6352 64.069H62.2822C64.4062 64.069 66.1252 64.312 67.4392 64.798C68.7712 65.284 69.7972 65.905 70.5172 66.661C71.2552 67.417 71.7502 68.263 72.0022 69.199C72.2542 70.117 72.3802 71.017 72.3802 71.899V72.898H56.4772C56.6572 73.744 57.1432 74.428 57.9352 74.95C58.7272 75.472 59.9512 75.733 61.6072 75.733H61.6342C62.6242 75.733 63.4252 75.652 64.0372 75.49C64.6492 75.328 65.1262 75.148 65.4682 74.95C65.8102 74.734 66.0352 74.527 66.1432 74.329C66.2692 74.113 66.3412 73.96 66.3592 73.87H72.2992V73.897ZM83.4968 79.405C81.4268 79.405 79.7348 79.171 78.4208 78.703C77.1068 78.217 76.0718 77.614 75.3158 76.894C74.5778 76.156 74.0648 75.346 73.7768 74.464C73.5068 73.582 73.3718 72.736 73.3718 71.926V71.386C73.3718 70.576 73.5068 69.739 73.7768 68.875C74.0648 68.011 74.5778 67.228 75.3158 66.526C76.0538 65.806 77.0798 65.221 78.3938 64.771C79.7078 64.303 81.3998 64.069 83.4698 64.069H85.0088C86.5208 64.069 87.8168 64.186 88.8968 64.42C89.9948 64.636 90.9218 64.924 91.6778 65.284C92.4338 65.644 93.0458 66.058 93.5138 66.526C93.9818 66.976 94.3418 67.435 94.5938 67.903C94.8458 68.371 95.0078 68.83 95.0798 69.28C95.1698 69.712 95.2148 70.09 95.2148 70.414V70.495H89.0318C88.9958 70.351 88.9148 70.135 88.7888 69.847C88.6808 69.559 88.4558 69.271 88.1138 68.983C87.7898 68.677 87.3128 68.416 86.6828 68.2C86.0708 67.984 85.2518 67.876 84.2258 67.876H84.1448C83.2628 67.876 82.5248 67.975 81.9308 68.173C81.3548 68.371 80.8868 68.641 80.5268 68.983C80.1668 69.325 79.9058 69.712 79.7438 70.144C79.5998 70.576 79.5278 71.017 79.5278 71.467V71.656C79.5278 72.142 79.5998 72.619 79.7438 73.087C79.9058 73.555 80.1668 73.969 80.5268 74.329C80.8868 74.689 81.3638 74.986 81.9578 75.22C82.5518 75.436 83.2808 75.544 84.1448 75.544H84.2258C85.2338 75.544 86.0438 75.436 86.6558 75.22C87.2858 74.986 87.7718 74.725 88.1138 74.437C88.4558 74.131 88.6808 73.834 88.7888 73.546C88.9148 73.24 88.9958 73.015 89.0318 72.871H95.2148V72.925C95.2148 73.267 95.1788 73.663 95.1068 74.113C95.0348 74.563 94.8728 75.031 94.6208 75.517C94.3868 75.985 94.0358 76.453 93.5678 76.921C93.1178 77.389 92.5148 77.812 91.7588 78.19C91.0028 78.55 90.0668 78.838 88.9508 79.054C87.8528 79.288 86.5298 79.405 84.9818 79.405H83.4968ZM101.782 68.47H95.7067V64.474H113.878V68.47H107.803V79H101.782V68.47ZM125.059 79.405C122.953 79.405 121.225 79.171 119.875 78.703C118.525 78.235 117.454 77.641 116.662 76.921C115.888 76.183 115.348 75.373 115.042 74.491C114.754 73.609 114.61 72.745 114.61 71.899V71.413C114.61 70.585 114.754 69.739 115.042 68.875C115.348 67.993 115.888 67.201 116.662 66.499C117.436 65.779 118.498 65.194 119.848 64.744C121.198 64.294 122.926 64.069 125.032 64.069H126.949C129.163 64.069 130.945 64.303 132.295 64.771C133.663 65.221 134.716 65.806 135.454 66.526C136.21 67.228 136.714 68.011 136.966 68.875C137.218 69.739 137.344 70.585 137.344 71.413V71.899C137.344 72.745 137.218 73.609 136.966 74.491C136.732 75.373 136.246 76.183 135.508 76.921C134.77 77.641 133.717 78.235 132.349 78.703C130.999 79.171 129.199 79.405 126.949 79.405H125.059ZM126.004 75.49C127.03 75.49 127.876 75.373 128.542 75.139C129.226 74.905 129.766 74.608 130.162 74.248C130.558 73.888 130.837 73.492 130.999 73.06C131.161 72.61 131.242 72.169 131.242 71.737V71.602C131.242 71.152 131.161 70.711 130.999 70.279C130.837 69.829 130.558 69.433 130.162 69.091C129.766 68.749 129.226 68.47 128.542 68.254C127.876 68.038 127.039 67.93 126.031 67.93H126.004C124.978 67.93 124.123 68.038 123.439 68.254C122.773 68.452 122.242 68.731 121.846 69.091C121.45 69.433 121.171 69.829 121.009 70.279C120.847 70.711 120.766 71.152 120.766 71.602V71.737C120.766 72.169 120.847 72.61 121.009 73.06C121.171 73.492 121.45 73.888 121.846 74.248C122.242 74.608 122.773 74.905 123.439 75.139C124.123 75.373 124.978 75.49 126.004 75.49ZM146.619 66.553V62.773C147.483 62.719 148.239 62.584 148.887 62.368C149.535 62.152 150.093 61.882 150.561 61.558C151.047 61.216 151.452 60.829 151.776 60.397C152.1 59.947 152.379 59.452 152.613 58.912H157.527V79H151.29V66.553H146.619ZM178.083 65.365C178.083 65.131 178.002 64.888 177.84 64.636C177.696 64.366 177.408 64.123 176.976 63.907C176.562 63.691 175.968 63.511 175.194 63.367C174.438 63.223 173.439 63.151 172.197 63.151C170.919 63.151 169.893 63.223 169.119 63.367C168.363 63.511 167.778 63.691 167.364 63.907C166.968 64.123 166.707 64.366 166.581 64.636C166.455 64.888 166.392 65.131 166.392 65.365V65.446C166.392 65.698 166.455 65.959 166.581 66.229C166.707 66.499 166.968 66.742 167.364 66.958C167.778 67.174 168.363 67.354 169.119 67.498C169.893 67.642 170.919 67.714 172.197 67.714C173.457 67.714 174.474 67.642 175.248 67.498C176.022 67.354 176.616 67.174 177.03 66.958C177.444 66.724 177.723 66.481 177.867 66.229C178.011 65.959 178.083 65.698 178.083 65.446V65.365ZM172.089 79.405C169.857 79.405 168.003 79.198 166.527 78.784C165.069 78.37 163.899 77.857 163.017 77.245C162.153 76.615 161.541 75.931 161.181 75.193C160.821 74.455 160.641 73.762 160.641 73.114V73.006H167.148C167.166 73.078 167.238 73.213 167.364 73.411C167.49 73.591 167.733 73.789 168.093 74.005C168.471 74.203 169.002 74.383 169.686 74.545C170.388 74.689 171.324 74.761 172.494 74.761C173.934 74.761 175.077 74.581 175.923 74.221C176.769 73.861 177.408 73.429 177.84 72.925C178.29 72.421 178.578 71.908 178.704 71.386C178.83 70.846 178.893 70.405 178.893 70.063V69.982C178.749 70.09 178.515 70.252 178.191 70.468C177.867 70.684 177.399 70.9 176.787 71.116C176.175 71.332 175.392 71.521 174.438 71.683C173.484 71.845 172.305 71.926 170.901 71.926H170.55C168.444 71.926 166.698 71.755 165.312 71.413C163.926 71.053 162.819 70.585 161.991 70.009C161.181 69.433 160.605 68.767 160.263 68.011C159.939 67.255 159.777 66.481 159.777 65.689V65.446C159.777 64.96 159.822 64.447 159.912 63.907C160.02 63.367 160.218 62.845 160.506 62.341C160.794 61.837 161.199 61.36 161.721 60.91C162.261 60.442 162.963 60.037 163.827 59.695C164.709 59.335 165.771 59.056 167.013 58.858C168.273 58.66 169.767 58.561 171.495 58.561H172.683C175.185 58.561 177.246 58.84 178.866 59.398C180.486 59.956 181.764 60.703 182.7 61.639C183.636 62.575 184.284 63.655 184.644 64.879C185.022 66.085 185.211 67.345 185.211 68.659V69.307C185.211 70.495 185.04 71.692 184.698 72.898C184.356 74.086 183.735 75.166 182.835 76.138C181.953 77.092 180.729 77.875 179.163 78.487C177.615 79.099 175.617 79.405 173.169 79.405H172.089ZM204.872 65.365C204.872 65.131 204.791 64.888 204.629 64.636C204.485 64.366 204.197 64.123 203.765 63.907C203.351 63.691 202.757 63.511 201.983 63.367C201.227 63.223 200.228 63.151 198.986 63.151C197.708 63.151 196.682 63.223 195.908 63.367C195.152 63.511 194.567 63.691 194.153 63.907C193.757 64.123 193.496 64.366 193.37 64.636C193.244 64.888 193.181 65.131 193.181 65.365V65.446C193.181 65.698 193.244 65.959 193.37 66.229C193.496 66.499 193.757 66.742 194.153 66.958C194.567 67.174 195.152 67.354 195.908 67.498C196.682 67.642 197.708 67.714 198.986 67.714C200.246 67.714 201.263 67.642 202.037 67.498C202.811 67.354 203.405 67.174 203.819 66.958C204.233 66.724 204.512 66.481 204.656 66.229C204.8 65.959 204.872 65.698 204.872 65.446V65.365ZM198.878 79.405C196.646 79.405 194.792 79.198 193.316 78.784C191.858 78.37 190.688 77.857 189.806 77.245C188.942 76.615 188.33 75.931 187.97 75.193C187.61 74.455 187.43 73.762 187.43 73.114V73.006H193.937C193.955 73.078 194.027 73.213 194.153 73.411C194.279 73.591 194.522 73.789 194.882 74.005C195.26 74.203 195.791 74.383 196.475 74.545C197.177 74.689 198.113 74.761 199.283 74.761C200.723 74.761 201.866 74.581 202.712 74.221C203.558 73.861 204.197 73.429 204.629 72.925C205.079 72.421 205.367 71.908 205.493 71.386C205.619 70.846 205.682 70.405 205.682 70.063V69.982C205.538 70.09 205.304 70.252 204.98 70.468C204.656 70.684 204.188 70.9 203.576 71.116C202.964 71.332 202.181 71.521 201.227 71.683C200.273 71.845 199.094 71.926 197.69 71.926H197.339C195.233 71.926 193.487 71.755 192.101 71.413C190.715 71.053 189.608 70.585 188.78 70.009C187.97 69.433 187.394 68.767 187.052 68.011C186.728 67.255 186.566 66.481 186.566 65.689V65.446C186.566 64.96 186.611 64.447 186.701 63.907C186.809 63.367 187.007 62.845 187.295 62.341C187.583 61.837 187.988 61.36 188.51 60.91C189.05 60.442 189.752 60.037 190.616 59.695C191.498 59.335 192.56 59.056 193.802 58.858C195.062 58.66 196.556 58.561 198.284 58.561H199.472C201.974 58.561 204.035 58.84 205.655 59.398C207.275 59.956 208.553 60.703 209.489 61.639C210.425 62.575 211.073 63.655 211.433 64.879C211.811 66.085 212 67.345 212 68.659V69.307C212 70.495 211.829 71.692 211.487 72.898C211.145 74.086 210.524 75.166 209.624 76.138C208.742 77.092 207.518 77.875 205.952 78.487C204.404 79.099 202.406 79.405 199.958 79.405H198.878ZM250.092 69.307C250.092 69.883 250.029 70.54 249.903 71.278C249.795 71.998 249.57 72.736 249.228 73.492C248.886 74.23 248.4 74.95 247.77 75.652C247.158 76.354 246.348 76.984 245.34 77.542C244.35 78.082 243.126 78.523 241.668 78.865C240.228 79.189 238.518 79.351 236.538 79.351H235.35C233.37 79.351 231.66 79.189 230.22 78.865C228.78 78.523 227.556 78.082 226.548 77.542C225.558 76.984 224.748 76.354 224.118 75.652C223.488 74.95 223.002 74.23 222.66 73.492C222.318 72.736 222.084 71.998 221.958 71.278C221.85 70.558 221.796 69.901 221.796 69.307V68.497C221.796 67.903 221.85 67.246 221.958 66.526C222.084 65.806 222.318 65.077 222.66 64.339C223.002 63.601 223.488 62.89 224.118 62.206C224.748 61.504 225.558 60.883 226.548 60.343C227.556 59.803 228.78 59.371 230.22 59.047C231.66 58.723 233.37 58.561 235.35 58.561H236.538C238.518 58.561 240.228 58.723 241.668 59.047C243.108 59.371 244.332 59.803 245.34 60.343C246.348 60.883 247.158 61.504 247.77 62.206C248.4 62.89 248.886 63.601 249.228 64.339C249.57 65.077 249.795 65.806 249.903 66.526C250.029 67.246 250.092 67.903 250.092 68.497V69.307ZM243.504 68.686C243.504 68.11 243.396 67.516 243.18 66.904C242.982 66.292 242.595 65.734 242.019 65.23C241.461 64.708 240.687 64.285 239.697 63.961C238.725 63.619 237.474 63.448 235.944 63.448C234.378 63.448 233.1 63.619 232.11 63.961C231.138 64.285 230.373 64.708 229.815 65.23C229.257 65.734 228.879 66.292 228.681 66.904C228.483 67.516 228.384 68.11 228.384 68.686V69.01C228.384 69.586 228.492 70.189 228.708 70.819C228.924 71.449 229.311 72.034 229.869 72.574C230.427 73.114 231.192 73.564 232.164 73.924C233.154 74.266 234.414 74.437 235.944 74.437C237.474 74.437 238.725 74.266 239.697 73.924C240.687 73.582 241.461 73.15 242.019 72.628C242.577 72.088 242.964 71.503 243.18 70.873C243.396 70.243 243.504 69.64 243.504 69.064V68.686ZM279.834 69.307C279.834 69.883 279.771 70.54 279.645 71.278C279.537 71.998 279.312 72.736 278.97 73.492C278.628 74.23 278.142 74.95 277.512 75.652C276.9 76.354 276.09 76.984 275.082 77.542C274.092 78.082 272.868 78.523 271.41 78.865C269.97 79.189 268.26 79.351 266.28 79.351H265.092C263.112 79.351 261.402 79.189 259.962 78.865C258.522 78.523 257.298 78.082 256.29 77.542C255.3 76.984 254.49 76.354 253.86 75.652C253.23 74.95 252.744 74.23 252.402 73.492C252.06 72.736 251.826 71.998 251.7 71.278C251.592 70.558 251.538 69.901 251.538 69.307V68.497C251.538 67.903 251.592 67.246 251.7 66.526C251.826 65.806 252.06 65.077 252.402 64.339C252.744 63.601 253.23 62.89 253.86 62.206C254.49 61.504 255.3 60.883 256.29 60.343C257.298 59.803 258.522 59.371 259.962 59.047C261.402 58.723 263.112 58.561 265.092 58.561H266.28C268.26 58.561 269.97 58.723 271.41 59.047C272.85 59.371 274.074 59.803 275.082 60.343C276.09 60.883 276.9 61.504 277.512 62.206C278.142 62.89 278.628 63.601 278.97 64.339C279.312 65.077 279.537 65.806 279.645 66.526C279.771 67.246 279.834 67.903 279.834 68.497V69.307ZM273.246 68.686C273.246 68.11 273.138 67.516 272.922 66.904C272.724 66.292 272.337 65.734 271.761 65.23C271.203 64.708 270.429 64.285 269.439 63.961C268.467 63.619 267.216 63.448 265.686 63.448C264.12 63.448 262.842 63.619 261.852 63.961C260.88 64.285 260.115 64.708 259.557 65.23C258.999 65.734 258.621 66.292 258.423 66.904C258.225 67.516 258.126 68.11 258.126 68.686V69.01C258.126 69.586 258.234 70.189 258.45 70.819C258.666 71.449 259.053 72.034 259.611 72.574C260.169 73.114 260.934 73.564 261.906 73.924C262.896 74.266 264.156 74.437 265.686 74.437C267.216 74.437 268.467 74.266 269.439 73.924C270.429 73.582 271.203 73.15 271.761 72.628C272.319 72.088 272.706 71.503 272.922 70.873C273.138 70.243 273.246 69.64 273.246 69.064V68.686ZM309.576 69.307C309.576 69.883 309.513 70.54 309.387 71.278C309.279 71.998 309.054 72.736 308.712 73.492C308.37 74.23 307.884 74.95 307.254 75.652C306.642 76.354 305.832 76.984 304.824 77.542C303.834 78.082 302.61 78.523 301.152 78.865C299.712 79.189 298.002 79.351 296.022 79.351H294.834C292.854 79.351 291.144 79.189 289.704 78.865C288.264 78.523 287.04 78.082 286.032 77.542C285.042 76.984 284.232 76.354 283.602 75.652C282.972 74.95 282.486 74.23 282.144 73.492C281.802 72.736 281.568 71.998 281.442 71.278C281.334 70.558 281.28 69.901 281.28 69.307V68.497C281.28 67.903 281.334 67.246 281.442 66.526C281.568 65.806 281.802 65.077 282.144 64.339C282.486 63.601 282.972 62.89 283.602 62.206C284.232 61.504 285.042 60.883 286.032 60.343C287.04 59.803 288.264 59.371 289.704 59.047C291.144 58.723 292.854 58.561 294.834 58.561H296.022C298.002 58.561 299.712 58.723 301.152 59.047C302.592 59.371 303.816 59.803 304.824 60.343C305.832 60.883 306.642 61.504 307.254 62.206C307.884 62.89 308.37 63.601 308.712 64.339C309.054 65.077 309.279 65.806 309.387 66.526C309.513 67.246 309.576 67.903 309.576 68.497V69.307ZM302.988 68.686C302.988 68.11 302.88 67.516 302.664 66.904C302.466 66.292 302.079 65.734 301.503 65.23C300.945 64.708 300.171 64.285 299.181 63.961C298.209 63.619 296.958 63.448 295.428 63.448C293.862 63.448 292.584 63.619 291.594 63.961C290.622 64.285 289.857 64.708 289.299 65.23C288.741 65.734 288.363 66.292 288.165 66.904C287.967 67.516 287.868 68.11 287.868 68.686V69.01C287.868 69.586 287.976 70.189 288.192 70.819C288.408 71.449 288.795 72.034 289.353 72.574C289.911 73.114 290.676 73.564 291.648 73.924C292.638 74.266 293.898 74.437 295.428 74.437C296.958 74.437 298.209 74.266 299.181 73.924C300.171 73.582 300.945 73.15 301.503 72.628C302.061 72.088 302.448 71.503 302.664 70.873C302.88 70.243 302.988 69.64 302.988 69.064V68.686ZM337.833 65.716C337.833 66.616 337.68 67.471 337.374 68.281C337.068 69.073 336.555 69.766 335.835 70.36C335.115 70.954 334.152 71.431 332.946 71.791C331.758 72.133 330.264 72.304 328.464 72.304H319.689V73.789H329.841V76.165H319.689V79H313.398V76.165H310.428V73.789H313.398V72.304H310.428V69.928H313.398V58.912H328.464C330.264 58.912 331.767 59.083 332.973 59.425C334.179 59.749 335.142 60.208 335.862 60.802C336.582 61.396 337.086 62.089 337.374 62.881C337.68 63.673 337.833 64.528 337.833 65.446V65.716ZM319.689 68.443H328.356C329.346 68.443 330.075 68.236 330.543 67.822C331.029 67.408 331.272 66.805 331.272 66.013V65.932C331.272 65.14 331.038 64.537 330.57 64.123C330.102 63.691 329.364 63.475 328.356 63.475H319.689V68.443Z" fill="#6D6D6D"/>
</g>
<path d="M122.506 49L347.494 79.087" stroke="#FB2C4B" stroke-width="4" stroke-linecap="round"/>
<defs>
<filter id="filter0_d_77_42" x="0.904266" y="0.679993" width="345.929" height="87.725" filterUnits="userSpaceOnUse" color-interpolation-filters="sRGB">
<feFlood flood-opacity="0" result="BackgroundImageFix"/>
<feColorMatrix in="SourceAlpha" type="matrix" values="0 0 0 0 0 0 0 0 0 0 0 0 0 0 0 0 0 0 127 0" result="hardAlpha"/>
<feOffset dx="4" dy="4"/>
<feGaussianBlur stdDeviation="2.5"/>
<feComposite in2="hardAlpha" operator="out"/>
<feColorMatrix type="matrix" values="0 0 0 0 0.241458 0 0 0 0 0.559497 0 0 0 0 0.7625 0 0 0 0.5 0"/>
<feBlend mode="normal" in2="BackgroundImageFix" result="effect1_dropShadow_77_42"/>
<feBlend mode="normal" in="SourceGraphic" in2="effect1_dropShadow_77_42" result="shape"/>
</filter>
</defs>
</svg>
