<svg width="338" height="81" viewBox="0 0 338 81" fill="none" xmlns="http://www.w3.org/2000/svg">
<path d="M71.1734 9.04C71.1734 9.94667 70.9734 10.76 70.5734 11.48C70.2001 12.2 69.6934 12.8267 69.0534 13.36C68.4134 13.8933 67.6934 14.32 66.8934 14.64C66.1201 14.96 65.3334 15.1733 64.5334 15.28C65.4668 15.44 66.3734 15.7067 67.2534 16.08C68.1601 16.4267 68.9468 16.88 69.6134 17.44C70.3068 18 70.8534 18.6667 71.2534 19.44C71.6801 20.2133 71.8934 21.08 71.8934 22.04V22.48C71.8934 23.0667 71.8134 23.7067 71.6534 24.4C71.5201 25.0933 71.2268 25.7733 70.7734 26.44C70.3201 27.1067 69.6668 27.76 68.8134 28.4C67.9868 29.0133 66.8668 29.56 65.4534 30.04C64.0668 30.52 62.3468 30.8933 60.2934 31.16C58.2668 31.4533 55.8401 31.6 53.0134 31.6H51.2934C48.4134 31.6 45.9468 31.4533 43.8934 31.16C41.8401 30.8933 40.1068 30.52 38.6934 30.04C37.3068 29.56 36.2001 29.0133 35.3734 28.4C34.5468 27.76 33.9068 27.1067 33.4534 26.44C33.0268 25.7733 32.7468 25.1067 32.6134 24.44C32.4801 23.7467 32.4134 23.0933 32.4134 22.48V22.04C32.4134 21.08 32.6268 20.2267 33.0534 19.48C33.4801 18.7067 34.0268 18.04 34.6934 17.48C35.3868 16.92 36.1734 16.4533 37.0534 16.08C37.9334 15.7067 38.8401 15.44 39.7734 15.28C38.9468 15.1467 38.1334 14.92 37.3334 14.6C36.5334 14.28 35.8134 13.8667 35.1734 13.36C34.5601 12.8267 34.0534 12.2 33.6534 11.48C33.2801 10.76 33.0934 9.94667 33.0934 9.04V8.68C33.0934 8.17333 33.1468 7.62667 33.2534 7.04C33.3868 6.45333 33.6534 5.86667 34.0534 5.28C34.4801 4.66667 35.0934 4.09333 35.8934 3.56C36.6934 3 37.7601 2.50667 39.0934 2.08C40.4534 1.65333 42.1201 1.32 44.0934 1.08C46.0934 0.813333 48.4934 0.679999 51.2934 0.679999H53.0534C55.8534 0.679999 58.2401 0.813333 60.2134 1.08C62.1868 1.32 63.8401 1.65333 65.1734 2.08C66.5334 2.50667 67.6001 3 68.3734 3.56C69.1734 4.09333 69.7734 4.66667 70.1734 5.28C70.6001 5.86667 70.8668 6.45333 70.9734 7.04C71.1068 7.62667 71.1734 8.17333 71.1734 8.68V9.04ZM59.3734 9.64C59.3734 9.37333 59.3068 9.10667 59.1734 8.84C59.0401 8.54667 58.7201 8.28 58.2134 8.04C57.7334 7.8 57.0134 7.61333 56.0534 7.48C55.0934 7.32 53.7868 7.24 52.1334 7.24C50.4534 7.24 49.1334 7.32 48.1734 7.48C47.2134 7.61333 46.4801 7.8 45.9734 8.04C45.4934 8.28 45.1868 8.54667 45.0534 8.84C44.9468 9.10667 44.8934 9.37333 44.8934 9.64V9.76C44.8934 10.0533 44.9601 10.3467 45.0934 10.64C45.2268 10.9333 45.5468 11.2 46.0534 11.44C46.5601 11.68 47.2801 11.88 48.2134 12.04C49.1734 12.1733 50.4801 12.24 52.1334 12.24C53.7601 12.24 55.0534 12.1733 56.0134 12.04C56.9734 11.88 57.7068 11.68 58.2134 11.44C58.7201 11.2 59.0401 10.9333 59.1734 10.64C59.3068 10.3467 59.3734 10.0533 59.3734 9.76V9.64ZM60.1734 21.64C60.1734 21.32 60.0801 21 59.8934 20.68C59.7334 20.36 59.3734 20.08 58.8134 19.84C58.2534 19.5733 57.4401 19.3733 56.3734 19.24C55.3334 19.08 53.9201 19 52.1334 19C50.3468 19 48.9201 19.08 47.8534 19.24C46.8134 19.3733 46.0134 19.5733 45.4534 19.84C44.8934 20.08 44.5334 20.36 44.3734 20.68C44.2134 21 44.1334 21.32 44.1334 21.64V21.76C44.1334 22.0533 44.2134 22.3733 44.3734 22.72C44.5601 23.04 44.9334 23.3333 45.4934 23.6C46.0534 23.8667 46.8534 24.0933 47.8934 24.28C48.9601 24.44 50.3734 24.52 52.1334 24.52C53.9201 24.52 55.3334 24.44 56.3734 24.28C57.4401 24.0933 58.2534 23.8667 58.8134 23.6C59.3734 23.3333 59.7334 23.04 59.8934 22.72C60.0801 22.3733 60.1734 22.0533 60.1734 21.76V21.64ZM100.598 10.92C100.598 10.5733 100.491 10.2267 100.278 9.88C100.091 9.50667 99.7042 9.18666 99.1175 8.92C98.5575 8.62667 97.7575 8.38667 96.7175 8.2C95.7042 8.01333 94.3708 7.92 92.7175 7.92C91.0375 7.92 89.6908 8.01333 88.6775 8.2C87.6642 8.36 86.8775 8.58667 86.3175 8.88C85.7842 9.17333 85.4242 9.50667 85.2375 9.88C85.0508 10.2267 84.9575 10.5733 84.9575 10.92V11C84.9575 11.3467 85.0508 11.7067 85.2375 12.08C85.4242 12.4267 85.7842 12.7467 86.3175 13.04C86.8775 13.3067 87.6642 13.5333 88.6775 13.72C89.6908 13.9067 91.0375 14 92.7175 14C94.3975 14 95.7442 13.9067 96.7575 13.72C97.7975 13.5333 98.5975 13.3067 99.1575 13.04C99.7175 12.7467 100.091 12.4267 100.278 12.08C100.491 11.7067 100.598 11.3467 100.598 11V10.92ZM92.4375 31.6C88.8108 31.6 85.8375 31.2933 83.5175 30.68C81.1975 30.04 79.3575 29.2533 77.9975 28.32C76.6642 27.36 75.7442 26.3333 75.2375 25.24C74.7308 24.12 74.4775 23.0933 74.4775 22.16V21.96H85.9575C86.0108 22.0933 86.1308 22.2933 86.3175 22.56C86.5042 22.8 86.8375 23.0667 87.3175 23.36C87.8242 23.6267 88.5175 23.8667 89.3975 24.08C90.3042 24.2667 91.4908 24.36 92.9575 24.36C94.8242 24.36 96.3308 24.12 97.4775 23.64C98.6242 23.16 99.5042 22.5867 100.118 21.92C100.731 21.2267 101.131 20.52 101.318 19.8C101.531 19.0533 101.638 18.4133 101.638 17.88V17.72C101.424 17.88 101.078 18.12 100.598 18.44C100.118 18.7333 99.4108 19.04 98.4775 19.36C97.5708 19.68 96.4108 19.96 94.9975 20.2C93.5842 20.44 91.8508 20.56 89.7975 20.56H89.2775C86.1842 20.56 83.5975 20.3067 81.5175 19.8C79.4642 19.2933 77.8108 18.6133 76.5575 17.76C75.3308 16.9067 74.4508 15.92 73.9175 14.8C73.4108 13.6533 73.1575 12.4533 73.1575 11.2V10.84C73.1575 10.0667 73.2375 9.28 73.3975 8.48C73.5575 7.68 73.8775 6.90666 74.3575 6.16C74.8375 5.38667 75.5042 4.68 76.3575 4.04C77.2108 3.37333 78.3175 2.8 79.6775 2.32C81.0375 1.81333 82.7042 1.41333 84.6775 1.12C86.6508 0.826666 88.9842 0.679999 91.6775 0.679999H93.4775C96.2508 0.679999 98.6508 0.893332 100.678 1.32C102.731 1.72 104.491 2.28 105.958 3C107.424 3.72 108.624 4.57333 109.558 5.56C110.491 6.52 111.224 7.54667 111.758 8.64C112.291 9.73333 112.651 10.88 112.837 12.08C113.051 13.2533 113.158 14.4 113.158 15.52V16.48C113.158 17.52 113.064 18.6267 112.878 19.8C112.691 20.9467 112.344 22.08 111.838 23.2C111.358 24.32 110.664 25.3867 109.758 26.4C108.878 27.4133 107.731 28.3067 106.318 29.08C104.931 29.8533 103.238 30.4667 101.238 30.92C99.2375 31.3733 96.8775 31.6 94.1575 31.6H92.4375ZM170.786 16.68C170.786 17.5867 170.692 18.5867 170.506 19.68C170.319 20.7467 169.959 21.84 169.426 22.96C168.919 24.0533 168.186 25.12 167.226 26.16C166.266 27.1733 165.012 28.0933 163.466 28.92C161.919 29.72 160.026 30.36 157.786 30.84C155.572 31.32 152.946 31.56 149.906 31.56H148.106C145.039 31.56 142.399 31.32 140.186 30.84C137.972 30.36 136.079 29.72 134.506 28.92C132.959 28.0933 131.706 27.1733 130.746 26.16C129.786 25.12 129.039 24.0533 128.506 22.96C127.999 21.84 127.652 20.7467 127.466 19.68C127.279 18.5867 127.186 17.5867 127.186 16.68V15.48C127.186 14.5733 127.279 13.5733 127.466 12.48C127.652 11.3867 127.999 10.2933 128.506 9.2C129.039 8.10667 129.786 7.05333 130.746 6.04C131.706 5 132.959 4.09333 134.506 3.32C136.079 2.52 137.972 1.88 140.186 1.4C142.399 0.919999 145.039 0.679999 148.106 0.679999H149.906C152.946 0.679999 155.572 0.919999 157.786 1.4C160.026 1.88 161.919 2.52 163.466 3.32C165.012 4.09333 166.266 5 167.226 6.04C168.186 7.05333 168.919 8.10667 169.426 9.2C169.959 10.2933 170.319 11.3867 170.506 12.48C170.692 13.5733 170.786 14.5733 170.786 15.48V16.68ZM158.986 15.72C158.986 14.9467 158.839 14.1467 158.546 13.32C158.252 12.4933 157.732 11.7333 156.986 11.04C156.239 10.3467 155.212 9.78667 153.906 9.36C152.626 8.90667 150.986 8.68 148.986 8.68C146.932 8.68 145.252 8.90667 143.946 9.36C142.639 9.78667 141.612 10.3467 140.866 11.04C140.146 11.7333 139.639 12.4933 139.346 13.32C139.079 14.1467 138.946 14.9467 138.946 15.72V16.2C138.946 16.9733 139.092 17.7867 139.386 18.64C139.679 19.4933 140.199 20.28 140.946 21C141.692 21.72 142.719 22.32 144.026 22.8C145.332 23.2533 146.986 23.48 148.986 23.48C150.986 23.48 152.626 23.2533 153.906 22.8C155.212 22.32 156.239 21.7333 156.986 21.04C157.732 20.32 158.252 19.5333 158.546 18.68C158.839 17.8267 158.986 17.0133 158.986 16.24V15.72ZM216.215 16.68C216.215 17.5867 216.122 18.5867 215.935 19.68C215.749 20.7467 215.389 21.84 214.855 22.96C214.349 24.0533 213.615 25.12 212.655 26.16C211.695 27.1733 210.442 28.0933 208.895 28.92C207.349 29.72 205.455 30.36 203.215 30.84C201.002 31.32 198.375 31.56 195.335 31.56H193.535C190.469 31.56 187.829 31.32 185.615 30.84C183.402 30.36 181.509 29.72 179.935 28.92C178.389 28.0933 177.135 27.1733 176.175 26.16C175.215 25.12 174.469 24.0533 173.935 22.96C173.429 21.84 173.082 20.7467 172.895 19.68C172.709 18.5867 172.615 17.5867 172.615 16.68V15.48C172.615 14.5733 172.709 13.5733 172.895 12.48C173.082 11.3867 173.429 10.2933 173.935 9.2C174.469 8.10667 175.215 7.05333 176.175 6.04C177.135 5 178.389 4.09333 179.935 3.32C181.509 2.52 183.402 1.88 185.615 1.4C187.829 0.919999 190.469 0.679999 193.535 0.679999H195.335C198.375 0.679999 201.002 0.919999 203.215 1.4C205.455 1.88 207.349 2.52 208.895 3.32C210.442 4.09333 211.695 5 212.655 6.04C213.615 7.05333 214.349 8.10667 214.855 9.2C215.389 10.2933 215.749 11.3867 215.935 12.48C216.122 13.5733 216.215 14.5733 216.215 15.48V16.68ZM204.415 15.72C204.415 14.9467 204.269 14.1467 203.975 13.32C203.682 12.4933 203.162 11.7333 202.415 11.04C201.669 10.3467 200.642 9.78667 199.335 9.36C198.055 8.90667 196.415 8.68 194.415 8.68C192.362 8.68 190.682 8.90667 189.375 9.36C188.069 9.78667 187.042 10.3467 186.295 11.04C185.575 11.7333 185.069 12.4933 184.775 13.32C184.509 14.1467 184.375 14.9467 184.375 15.72V16.2C184.375 16.9733 184.522 17.7867 184.815 18.64C185.109 19.4933 185.629 20.28 186.375 21C187.122 21.72 188.149 22.32 189.455 22.8C190.762 23.2533 192.415 23.48 194.415 23.48C196.415 23.48 198.055 23.2533 199.335 22.8C200.642 22.32 201.669 21.7333 202.415 21.04C203.162 20.32 203.682 19.5333 203.975 18.68C204.269 17.8267 204.415 17.0133 204.415 16.24V15.72ZM261.645 16.68C261.645 17.5867 261.552 18.5867 261.365 19.68C261.178 20.7467 260.818 21.84 260.285 22.96C259.778 24.0533 259.045 25.12 258.085 26.16C257.125 27.1733 255.872 28.0933 254.325 28.92C252.778 29.72 250.885 30.36 248.645 30.84C246.432 31.32 243.805 31.56 240.765 31.56H238.965C235.898 31.56 233.258 31.32 231.045 30.84C228.832 30.36 226.938 29.72 225.365 28.92C223.818 28.0933 222.565 27.1733 221.605 26.16C220.645 25.12 219.898 24.0533 219.365 22.96C218.858 21.84 218.512 20.7467 218.325 19.68C218.138 18.5867 218.045 17.5867 218.045 16.68V15.48C218.045 14.5733 218.138 13.5733 218.325 12.48C218.512 11.3867 218.858 10.2933 219.365 9.2C219.898 8.10667 220.645 7.05333 221.605 6.04C222.565 5 223.818 4.09333 225.365 3.32C226.938 2.52 228.832 1.88 231.045 1.4C233.258 0.919999 235.898 0.679999 238.965 0.679999H240.765C243.805 0.679999 246.432 0.919999 248.645 1.4C250.885 1.88 252.778 2.52 254.325 3.32C255.872 4.09333 257.125 5 258.085 6.04C259.045 7.05333 259.778 8.10667 260.285 9.2C260.818 10.2933 261.178 11.3867 261.365 12.48C261.552 13.5733 261.645 14.5733 261.645 15.48V16.68ZM249.845 15.72C249.845 14.9467 249.698 14.1467 249.405 13.32C249.112 12.4933 248.592 11.7333 247.845 11.04C247.098 10.3467 246.072 9.78667 244.765 9.36C243.485 8.90667 241.845 8.68 239.845 8.68C237.792 8.68 236.112 8.90667 234.805 9.36C233.498 9.78667 232.472 10.3467 231.725 11.04C231.005 11.7333 230.498 12.4933 230.205 13.32C229.938 14.1467 229.805 14.9467 229.805 15.72V16.2C229.805 16.9733 229.952 17.7867 230.245 18.64C230.538 19.4933 231.058 20.28 231.805 21C232.552 21.72 233.578 22.32 234.885 22.8C236.192 23.2533 237.845 23.48 239.845 23.48C241.845 23.48 243.485 23.2533 244.765 22.8C246.072 22.32 247.098 21.7333 247.845 21.04C248.592 20.32 249.112 19.5333 249.405 18.68C249.698 17.8267 249.845 17.0133 249.845 16.24V15.72ZM305.715 11.72C305.715 13.08 305.488 14.36 305.035 15.56C304.581 16.76 303.808 17.8133 302.715 18.72C301.648 19.6267 300.208 20.3467 298.395 20.88C296.581 21.4133 294.315 21.68 291.595 21.68H278.115V23.64H293.715V27.16H278.115V31H266.795V27.16H262.795V23.64H266.795V21.68H262.795V18.2H266.795V1.24H291.595C294.341 1.24 296.621 1.49333 298.435 2C300.248 2.50667 301.688 3.21333 302.755 4.12C303.848 5 304.608 6.04 305.035 7.24C305.488 8.44 305.715 9.72 305.715 11.08V11.72ZM278.115 15.2H290.195C291.528 15.2 292.488 14.92 293.075 14.36C293.661 13.7733 293.955 12.9867 293.955 12V11.88C293.955 10.8933 293.661 10.12 293.075 9.56C292.515 8.97333 291.555 8.68 290.195 8.68H278.115V15.2Z" fill="url(#paint0_angular_77_15)"/>
<path d="M1.68849 78V63.474H12.4345C13.9825 63.474 15.2875 63.546 16.3495 63.69C17.4115 63.834 18.2665 64.05 18.9145 64.338C19.5625 64.626 20.0215 64.986 20.2915 65.418C20.5795 65.832 20.7235 66.309 20.7235 66.849V67.119C20.7235 67.911 20.4265 68.559 19.8325 69.063C19.2565 69.567 18.4645 69.936 17.4565 70.17C17.9605 70.278 18.4465 70.431 18.9145 70.629C19.4005 70.809 19.8235 71.043 20.1835 71.331C20.5615 71.619 20.8585 71.961 21.0745 72.357C21.2905 72.735 21.3985 73.158 21.3985 73.626V73.896C21.3985 74.472 21.2635 75.012 20.9935 75.516C20.7415 76.002 20.3185 76.434 19.7245 76.812C19.1485 77.172 18.3835 77.46 17.4295 77.676C16.4935 77.892 15.3415 78 13.9735 78H1.68849ZM12.1375 68.847C13.0735 68.847 13.7125 68.757 14.0545 68.577C14.4145 68.397 14.5945 68.127 14.5945 67.767V67.686C14.5945 67.344 14.4145 67.092 14.0545 66.93C13.7125 66.75 13.0645 66.66 12.1105 66.66H7.70949V68.847H12.1375ZM12.6775 74.733C14.4055 74.733 15.2695 74.265 15.2695 73.329V73.194C15.2695 72.33 14.3965 71.898 12.6505 71.898H7.70949V74.733H12.6775ZM28.8728 69.684V78H23.2568V63.474H30.5468L35.9738 71.871L41.5088 63.474H48.5558V78H42.5348V69.765L37.1888 78H34.2188L28.8728 69.684ZM61.2024 66.444C59.6904 66.444 58.5654 66.66 57.8274 67.092C57.0894 67.524 56.6034 68.127 56.3694 68.901H66.0894C65.8914 68.127 65.4144 67.524 64.6584 67.092C63.9024 66.66 62.7594 66.444 61.2294 66.444H61.2024ZM72.0834 72.897C72.0834 73.383 71.9664 73.95 71.7324 74.598C71.5164 75.228 71.0574 75.831 70.3554 76.407C69.6534 76.965 68.6454 77.442 67.3314 77.838C66.0174 78.216 64.2804 78.405 62.1204 78.405H60.5814C58.6374 78.405 57.0084 78.198 55.6944 77.784C54.3984 77.37 53.3544 76.821 52.5624 76.137C51.7704 75.435 51.2034 74.643 50.8614 73.761C50.5194 72.861 50.3484 71.934 50.3484 70.98V70.386C50.3484 69.45 50.5014 68.55 50.8074 67.686C51.1314 66.804 51.6714 66.021 52.4274 65.337C53.2014 64.653 54.2364 64.104 55.5324 63.69C56.8284 63.276 58.4574 63.069 60.4194 63.069H62.0664C64.1904 63.069 65.9094 63.312 67.2234 63.798C68.5554 64.284 69.5814 64.905 70.3014 65.661C71.0394 66.417 71.5344 67.263 71.7864 68.199C72.0384 69.117 72.1644 70.017 72.1644 70.899V71.898H56.2614C56.4414 72.744 56.9274 73.428 57.7194 73.95C58.5114 74.472 59.7354 74.733 61.3914 74.733H61.4184C62.4084 74.733 63.2094 74.652 63.8214 74.49C64.4334 74.328 64.9104 74.148 65.2524 73.95C65.5944 73.734 65.8194 73.527 65.9274 73.329C66.0534 73.113 66.1254 72.96 66.1434 72.87H72.0834V72.897ZM83.281 78.405C81.211 78.405 79.519 78.171 78.205 77.703C76.891 77.217 75.856 76.614 75.1 75.894C74.362 75.156 73.849 74.346 73.561 73.464C73.291 72.582 73.156 71.736 73.156 70.926V70.386C73.156 69.576 73.291 68.739 73.561 67.875C73.849 67.011 74.362 66.228 75.1 65.526C75.838 64.806 76.864 64.221 78.178 63.771C79.492 63.303 81.184 63.069 83.254 63.069H84.793C86.305 63.069 87.601 63.186 88.681 63.42C89.779 63.636 90.706 63.924 91.462 64.284C92.218 64.644 92.83 65.058 93.298 65.526C93.766 65.976 94.126 66.435 94.378 66.903C94.63 67.371 94.792 67.83 94.864 68.28C94.954 68.712 94.999 69.09 94.999 69.414V69.495H88.816C88.78 69.351 88.699 69.135 88.573 68.847C88.465 68.559 88.24 68.271 87.898 67.983C87.574 67.677 87.097 67.416 86.467 67.2C85.855 66.984 85.036 66.876 84.01 66.876H83.929C83.047 66.876 82.309 66.975 81.715 67.173C81.139 67.371 80.671 67.641 80.311 67.983C79.951 68.325 79.69 68.712 79.528 69.144C79.384 69.576 79.312 70.017 79.312 70.467V70.656C79.312 71.142 79.384 71.619 79.528 72.087C79.69 72.555 79.951 72.969 80.311 73.329C80.671 73.689 81.148 73.986 81.742 74.22C82.336 74.436 83.065 74.544 83.929 74.544H84.01C85.018 74.544 85.828 74.436 86.44 74.22C87.07 73.986 87.556 73.725 87.898 73.437C88.24 73.131 88.465 72.834 88.573 72.546C88.699 72.24 88.78 72.015 88.816 71.871H94.999V71.925C94.999 72.267 94.963 72.663 94.891 73.113C94.819 73.563 94.657 74.031 94.405 74.517C94.171 74.985 93.82 75.453 93.352 75.921C92.902 76.389 92.299 76.812 91.543 77.19C90.787 77.55 89.851 77.838 88.735 78.054C87.637 78.288 86.314 78.405 84.766 78.405H83.281ZM101.566 67.47H95.4909V63.474H113.662V67.47H107.587V78H101.566V67.47ZM124.843 78.405C122.737 78.405 121.009 78.171 119.659 77.703C118.309 77.235 117.238 76.641 116.446 75.921C115.672 75.183 115.132 74.373 114.826 73.491C114.538 72.609 114.394 71.745 114.394 70.899V70.413C114.394 69.585 114.538 68.739 114.826 67.875C115.132 66.993 115.672 66.201 116.446 65.499C117.22 64.779 118.282 64.194 119.632 63.744C120.982 63.294 122.71 63.069 124.816 63.069H126.733C128.947 63.069 130.729 63.303 132.079 63.771C133.447 64.221 134.5 64.806 135.238 65.526C135.994 66.228 136.498 67.011 136.75 67.875C137.002 68.739 137.128 69.585 137.128 70.413V70.899C137.128 71.745 137.002 72.609 136.75 73.491C136.516 74.373 136.03 75.183 135.292 75.921C134.554 76.641 133.501 77.235 132.133 77.703C130.783 78.171 128.983 78.405 126.733 78.405H124.843ZM125.788 74.49C126.814 74.49 127.66 74.373 128.326 74.139C129.01 73.905 129.55 73.608 129.946 73.248C130.342 72.888 130.621 72.492 130.783 72.06C130.945 71.61 131.026 71.169 131.026 70.737V70.602C131.026 70.152 130.945 69.711 130.783 69.279C130.621 68.829 130.342 68.433 129.946 68.091C129.55 67.749 129.01 67.47 128.326 67.254C127.66 67.038 126.823 66.93 125.815 66.93H125.788C124.762 66.93 123.907 67.038 123.223 67.254C122.557 67.452 122.026 67.731 121.63 68.091C121.234 68.433 120.955 68.829 120.793 69.279C120.631 69.711 120.55 70.152 120.55 70.602V70.737C120.55 71.169 120.631 71.61 120.793 72.06C120.955 72.492 121.234 72.888 121.63 73.248C122.026 73.608 122.557 73.905 123.223 74.139C123.907 74.373 124.762 74.49 125.788 74.49ZM146.403 65.553V61.773C147.267 61.719 148.023 61.584 148.671 61.368C149.319 61.152 149.877 60.882 150.345 60.558C150.831 60.216 151.236 59.829 151.56 59.397C151.884 58.947 152.163 58.452 152.397 57.912H157.311V78H151.074V65.553H146.403ZM159.75 78V75.732C159.75 75.246 159.777 74.724 159.831 74.166C159.885 73.59 160.02 73.005 160.236 72.411C160.452 71.817 160.767 71.232 161.181 70.656C161.595 70.062 162.171 69.504 162.909 68.982C163.647 68.442 164.556 67.947 165.636 67.497C166.734 67.047 168.057 66.66 169.605 66.336L174.303 65.364C174.987 65.238 175.527 65.112 175.923 64.986C176.319 64.842 176.616 64.707 176.814 64.581C177.012 64.437 177.138 64.293 177.192 64.149C177.246 64.005 177.273 63.852 177.273 63.69C177.273 63.492 177.219 63.303 177.111 63.123C177.003 62.943 176.769 62.781 176.409 62.637C176.049 62.493 175.536 62.385 174.87 62.313C174.204 62.223 173.322 62.178 172.224 62.178C170.964 62.178 169.965 62.277 169.227 62.475C168.507 62.673 167.958 62.925 167.58 63.231C167.202 63.519 166.959 63.825 166.851 64.149C166.743 64.473 166.68 64.761 166.662 65.013H160.101V64.797C160.101 64.419 160.137 63.978 160.209 63.474C160.299 62.952 160.47 62.43 160.722 61.908C160.992 61.368 161.379 60.837 161.883 60.315C162.387 59.793 163.062 59.334 163.908 58.938C164.754 58.524 165.789 58.191 167.013 57.939C168.255 57.687 169.74 57.561 171.468 57.561H172.548C174.906 57.561 176.823 57.732 178.299 58.074C179.793 58.416 180.954 58.875 181.782 59.451C182.61 60.027 183.168 60.693 183.456 61.449C183.762 62.187 183.915 62.952 183.915 63.744V63.798C183.915 64.554 183.816 65.247 183.618 65.877C183.438 66.489 183.069 67.047 182.511 67.551C181.953 68.037 181.161 68.469 180.135 68.847C179.127 69.225 177.804 69.549 176.166 69.819L170.658 70.737C169.47 70.953 168.525 71.178 167.823 71.412C167.121 71.646 166.59 71.88 166.23 72.114C165.87 72.33 165.636 72.546 165.528 72.762C165.42 72.96 165.366 73.122 165.366 73.248H178.083V70.656H184.266V78H159.75ZM204.076 64.365C204.076 64.131 203.995 63.888 203.833 63.636C203.689 63.366 203.401 63.123 202.969 62.907C202.555 62.691 201.961 62.511 201.187 62.367C200.431 62.223 199.432 62.151 198.19 62.151C196.912 62.151 195.886 62.223 195.112 62.367C194.356 62.511 193.771 62.691 193.357 62.907C192.961 63.123 192.7 63.366 192.574 63.636C192.448 63.888 192.385 64.131 192.385 64.365V64.446C192.385 64.698 192.448 64.959 192.574 65.229C192.7 65.499 192.961 65.742 193.357 65.958C193.771 66.174 194.356 66.354 195.112 66.498C195.886 66.642 196.912 66.714 198.19 66.714C199.45 66.714 200.467 66.642 201.241 66.498C202.015 66.354 202.609 66.174 203.023 65.958C203.437 65.724 203.716 65.481 203.86 65.229C204.004 64.959 204.076 64.698 204.076 64.446V64.365ZM198.082 78.405C195.85 78.405 193.996 78.198 192.52 77.784C191.062 77.37 189.892 76.857 189.01 76.245C188.146 75.615 187.534 74.931 187.174 74.193C186.814 73.455 186.634 72.762 186.634 72.114V72.006H193.141C193.159 72.078 193.231 72.213 193.357 72.411C193.483 72.591 193.726 72.789 194.086 73.005C194.464 73.203 194.995 73.383 195.679 73.545C196.381 73.689 197.317 73.761 198.487 73.761C199.927 73.761 201.07 73.581 201.916 73.221C202.762 72.861 203.401 72.429 203.833 71.925C204.283 71.421 204.571 70.908 204.697 70.386C204.823 69.846 204.886 69.405 204.886 69.063V68.982C204.742 69.09 204.508 69.252 204.184 69.468C203.86 69.684 203.392 69.9 202.78 70.116C202.168 70.332 201.385 70.521 200.431 70.683C199.477 70.845 198.298 70.926 196.894 70.926H196.543C194.437 70.926 192.691 70.755 191.305 70.413C189.919 70.053 188.812 69.585 187.984 69.009C187.174 68.433 186.598 67.767 186.256 67.011C185.932 66.255 185.77 65.481 185.77 64.689V64.446C185.77 63.96 185.815 63.447 185.905 62.907C186.013 62.367 186.211 61.845 186.499 61.341C186.787 60.837 187.192 60.36 187.714 59.91C188.254 59.442 188.956 59.037 189.82 58.695C190.702 58.335 191.764 58.056 193.006 57.858C194.266 57.66 195.76 57.561 197.488 57.561H198.676C201.178 57.561 203.239 57.84 204.859 58.398C206.479 58.956 207.757 59.703 208.693 60.639C209.629 61.575 210.277 62.655 210.637 63.879C211.015 65.085 211.204 66.345 211.204 67.659V68.307C211.204 69.495 211.033 70.692 210.691 71.898C210.349 73.086 209.728 74.166 208.828 75.138C207.946 76.092 206.722 76.875 205.156 77.487C203.608 78.099 201.61 78.405 199.162 78.405H198.082ZM249.296 68.307C249.296 68.883 249.233 69.54 249.107 70.278C248.999 70.998 248.774 71.736 248.432 72.492C248.09 73.23 247.604 73.95 246.974 74.652C246.362 75.354 245.552 75.984 244.544 76.542C243.554 77.082 242.33 77.523 240.872 77.865C239.432 78.189 237.722 78.351 235.742 78.351H234.554C232.574 78.351 230.864 78.189 229.424 77.865C227.984 77.523 226.76 77.082 225.752 76.542C224.762 75.984 223.952 75.354 223.322 74.652C222.692 73.95 222.206 73.23 221.864 72.492C221.522 71.736 221.288 70.998 221.162 70.278C221.054 69.558 221 68.901 221 68.307V67.497C221 66.903 221.054 66.246 221.162 65.526C221.288 64.806 221.522 64.077 221.864 63.339C222.206 62.601 222.692 61.89 223.322 61.206C223.952 60.504 224.762 59.883 225.752 59.343C226.76 58.803 227.984 58.371 229.424 58.047C230.864 57.723 232.574 57.561 234.554 57.561H235.742C237.722 57.561 239.432 57.723 240.872 58.047C242.312 58.371 243.536 58.803 244.544 59.343C245.552 59.883 246.362 60.504 246.974 61.206C247.604 61.89 248.09 62.601 248.432 63.339C248.774 64.077 248.999 64.806 249.107 65.526C249.233 66.246 249.296 66.903 249.296 67.497V68.307ZM242.708 67.686C242.708 67.11 242.6 66.516 242.384 65.904C242.186 65.292 241.799 64.734 241.223 64.23C240.665 63.708 239.891 63.285 238.901 62.961C237.929 62.619 236.678 62.448 235.148 62.448C233.582 62.448 232.304 62.619 231.314 62.961C230.342 63.285 229.577 63.708 229.019 64.23C228.461 64.734 228.083 65.292 227.885 65.904C227.687 66.516 227.588 67.11 227.588 67.686V68.01C227.588 68.586 227.696 69.189 227.912 69.819C228.128 70.449 228.515 71.034 229.073 71.574C229.631 72.114 230.396 72.564 231.368 72.924C232.358 73.266 233.618 73.437 235.148 73.437C236.678 73.437 237.929 73.266 238.901 72.924C239.891 72.582 240.665 72.15 241.223 71.628C241.781 71.088 242.168 70.503 242.384 69.873C242.6 69.243 242.708 68.64 242.708 68.064V67.686ZM279.038 68.307C279.038 68.883 278.975 69.54 278.849 70.278C278.741 70.998 278.516 71.736 278.174 72.492C277.832 73.23 277.346 73.95 276.716 74.652C276.104 75.354 275.294 75.984 274.286 76.542C273.296 77.082 272.072 77.523 270.614 77.865C269.174 78.189 267.464 78.351 265.484 78.351H264.296C262.316 78.351 260.606 78.189 259.166 77.865C257.726 77.523 256.502 77.082 255.494 76.542C254.504 75.984 253.694 75.354 253.064 74.652C252.434 73.95 251.948 73.23 251.606 72.492C251.264 71.736 251.03 70.998 250.904 70.278C250.796 69.558 250.742 68.901 250.742 68.307V67.497C250.742 66.903 250.796 66.246 250.904 65.526C251.03 64.806 251.264 64.077 251.606 63.339C251.948 62.601 252.434 61.89 253.064 61.206C253.694 60.504 254.504 59.883 255.494 59.343C256.502 58.803 257.726 58.371 259.166 58.047C260.606 57.723 262.316 57.561 264.296 57.561H265.484C267.464 57.561 269.174 57.723 270.614 58.047C272.054 58.371 273.278 58.803 274.286 59.343C275.294 59.883 276.104 60.504 276.716 61.206C277.346 61.89 277.832 62.601 278.174 63.339C278.516 64.077 278.741 64.806 278.849 65.526C278.975 66.246 279.038 66.903 279.038 67.497V68.307ZM272.45 67.686C272.45 67.11 272.342 66.516 272.126 65.904C271.928 65.292 271.541 64.734 270.965 64.23C270.407 63.708 269.633 63.285 268.643 62.961C267.671 62.619 266.42 62.448 264.89 62.448C263.324 62.448 262.046 62.619 261.056 62.961C260.084 63.285 259.319 63.708 258.761 64.23C258.203 64.734 257.825 65.292 257.627 65.904C257.429 66.516 257.33 67.11 257.33 67.686V68.01C257.33 68.586 257.438 69.189 257.654 69.819C257.87 70.449 258.257 71.034 258.815 71.574C259.373 72.114 260.138 72.564 261.11 72.924C262.1 73.266 263.36 73.437 264.89 73.437C266.42 73.437 267.671 73.266 268.643 72.924C269.633 72.582 270.407 72.15 270.965 71.628C271.523 71.088 271.91 70.503 272.126 69.873C272.342 69.243 272.45 68.64 272.45 68.064V67.686ZM308.78 68.307C308.78 68.883 308.717 69.54 308.591 70.278C308.483 70.998 308.258 71.736 307.916 72.492C307.574 73.23 307.088 73.95 306.458 74.652C305.846 75.354 305.036 75.984 304.028 76.542C303.038 77.082 301.814 77.523 300.356 77.865C298.916 78.189 297.206 78.351 295.226 78.351H294.038C292.058 78.351 290.348 78.189 288.908 77.865C287.468 77.523 286.244 77.082 285.236 76.542C284.246 75.984 283.436 75.354 282.806 74.652C282.176 73.95 281.69 73.23 281.348 72.492C281.006 71.736 280.772 70.998 280.646 70.278C280.538 69.558 280.484 68.901 280.484 68.307V67.497C280.484 66.903 280.538 66.246 280.646 65.526C280.772 64.806 281.006 64.077 281.348 63.339C281.69 62.601 282.176 61.89 282.806 61.206C283.436 60.504 284.246 59.883 285.236 59.343C286.244 58.803 287.468 58.371 288.908 58.047C290.348 57.723 292.058 57.561 294.038 57.561H295.226C297.206 57.561 298.916 57.723 300.356 58.047C301.796 58.371 303.02 58.803 304.028 59.343C305.036 59.883 305.846 60.504 306.458 61.206C307.088 61.89 307.574 62.601 307.916 63.339C308.258 64.077 308.483 64.806 308.591 65.526C308.717 66.246 308.78 66.903 308.78 67.497V68.307ZM302.192 67.686C302.192 67.11 302.084 66.516 301.868 65.904C301.67 65.292 301.283 64.734 300.707 64.23C300.149 63.708 299.375 63.285 298.385 62.961C297.413 62.619 296.162 62.448 294.632 62.448C293.066 62.448 291.788 62.619 290.798 62.961C289.826 63.285 289.061 63.708 288.503 64.23C287.945 64.734 287.567 65.292 287.369 65.904C287.171 66.516 287.072 67.11 287.072 67.686V68.01C287.072 68.586 287.18 69.189 287.396 69.819C287.612 70.449 287.999 71.034 288.557 71.574C289.115 72.114 289.88 72.564 290.852 72.924C291.842 73.266 293.102 73.437 294.632 73.437C296.162 73.437 297.413 73.266 298.385 72.924C299.375 72.582 300.149 72.15 300.707 71.628C301.265 71.088 301.652 70.503 301.868 69.873C302.084 69.243 302.192 68.64 302.192 68.064V67.686ZM337.038 64.716C337.038 65.616 336.885 66.471 336.579 67.281C336.273 68.073 335.76 68.766 335.04 69.36C334.32 69.954 333.357 70.431 332.151 70.791C330.963 71.133 329.469 71.304 327.669 71.304H318.894V72.789H329.046V75.165H318.894V78H312.603V75.165H309.633V72.789H312.603V71.304H309.633V68.928H312.603V57.912H327.669C329.469 57.912 330.972 58.083 332.178 58.425C333.384 58.749 334.347 59.208 335.067 59.802C335.787 60.396 336.291 61.089 336.579 61.881C336.885 62.673 337.038 63.528 337.038 64.446V64.716ZM318.894 67.443H327.561C328.551 67.443 329.28 67.236 329.748 66.822C330.234 66.408 330.477 65.805 330.477 65.013V64.932C330.477 64.14 330.243 63.537 329.775 63.123C329.307 62.691 328.569 62.475 327.561 62.475H318.894V67.443Z" fill="#6D6D6D"/>
<path d="M108.5 48L333.488 78.087" stroke="#FB2C4B" stroke-width="4" stroke-linecap="round"/>
<defs>
<radialGradient id="paint0_angular_77_15" cx="0" cy="0" r="1" gradientUnits="userSpaceOnUse" gradientTransform="translate(169 39.5) rotate(90) scale(38.5 168.5)">
<stop stop-color="#D1EDFF"/>
<stop offset="1" stop-color="#49B8FF"/>
</radialGradient>
</defs>
</svg>
