<svg width="350" height="80" viewBox="0 0 350 80" fill="none" xmlns="http://www.w3.org/2000/svg">
<path d="M22.4914 12.9V6.7C23.8248 6.62 24.9981 6.43333 26.0114 6.14C27.0248 5.82 27.9048 5.40666 28.6514 4.9C29.4248 4.39333 30.0781 3.79333 30.6114 3.1C31.1448 2.38 31.5848 1.59333 31.9314 0.739999H40.9714V30.5H29.6914V12.9H22.4914ZM44.0214 30.5V27.02C44.0214 26.3533 44.0481 25.62 44.1014 24.82C44.1814 23.9933 44.3814 23.1533 44.7014 22.3C45.0481 21.42 45.5414 20.54 46.1814 19.66C46.8481 18.7533 47.7681 17.8867 48.9414 17.06C50.1414 16.2067 51.6348 15.42 53.4214 14.7C55.2081 13.98 57.3948 13.34 59.9814 12.78C60.9148 12.5667 61.9148 12.3533 62.9814 12.14C64.0481 11.9267 64.9681 11.7533 65.7414 11.62C66.6748 11.4333 67.4214 11.26 67.9814 11.1C68.5414 10.9133 68.9548 10.74 69.2214 10.58C69.5148 10.3933 69.7014 10.2067 69.7814 10.02C69.8614 9.83333 69.9014 9.62 69.9014 9.38C69.9014 9.11333 69.8214 8.87333 69.6614 8.66C69.5281 8.42 69.2214 8.20667 68.7414 8.02C68.2881 7.83333 67.6348 7.68667 66.7814 7.58C65.9281 7.47333 64.7948 7.42 63.3814 7.42C61.6748 7.42 60.3414 7.56667 59.3814 7.86C58.4214 8.15333 57.7014 8.51333 57.2214 8.94C56.7414 9.34 56.4348 9.76666 56.3014 10.22C56.1948 10.6467 56.1281 11.0067 56.1014 11.3H44.5014V11.02C44.5014 10.4067 44.5548 9.71333 44.6614 8.94C44.7948 8.14 45.0614 7.34 45.4614 6.54C45.8881 5.74 46.4881 4.96667 47.2614 4.22C48.0348 3.44667 49.0748 2.76667 50.3814 2.18C51.7148 1.56667 53.3414 1.08667 55.2614 0.739999C57.1814 0.366666 59.4881 0.179999 62.1814 0.179999H63.9014C67.6614 0.179999 70.7014 0.433333 73.0214 0.939999C75.3681 1.44667 77.1814 2.12667 78.4614 2.98C79.7681 3.83333 80.6481 4.82 81.1014 5.94C81.5814 7.03333 81.8214 8.19333 81.8214 9.42V9.58C81.8214 10.8067 81.6081 11.8867 81.1814 12.82C80.7814 13.7533 80.0748 14.58 79.0614 15.3C78.0481 16.02 76.6614 16.6467 74.9014 17.18C73.1414 17.6867 70.9281 18.1533 68.2614 18.58L61.8614 19.66C60.1548 19.9533 58.7814 20.26 57.7414 20.58C56.7014 20.8733 55.8881 21.1667 55.3014 21.46C54.7414 21.7533 54.3681 22.0333 54.1814 22.3C53.9948 22.5667 53.9014 22.8067 53.9014 23.02H71.7414V19.5H82.2614V30.5H44.0214ZM111.611 10.42C111.611 10.0733 111.504 9.72667 111.291 9.38C111.104 9.00667 110.718 8.68666 110.131 8.42C109.571 8.12667 108.771 7.88667 107.731 7.7C106.718 7.51333 105.384 7.42 103.731 7.42C102.051 7.42 100.704 7.51333 99.6911 7.7C98.6778 7.86 97.8911 8.08667 97.3311 8.38C96.7978 8.67333 96.4378 9.00667 96.2511 9.38C96.0644 9.72667 95.9711 10.0733 95.9711 10.42V10.5C95.9711 10.8467 96.0644 11.2067 96.2511 11.58C96.4378 11.9267 96.7978 12.2467 97.3311 12.54C97.8911 12.8067 98.6778 13.0333 99.6911 13.22C100.704 13.4067 102.051 13.5 103.731 13.5C105.411 13.5 106.758 13.4067 107.771 13.22C108.811 13.0333 109.611 12.8067 110.171 12.54C110.731 12.2467 111.104 11.9267 111.291 11.58C111.504 11.2067 111.611 10.8467 111.611 10.5V10.42ZM103.451 31.1C99.8244 31.1 96.8511 30.7933 94.5311 30.18C92.2111 29.54 90.3711 28.7533 89.0111 27.82C87.6778 26.86 86.7578 25.8333 86.2511 24.74C85.7444 23.62 85.4911 22.5933 85.4911 21.66V21.46H96.9711C97.0244 21.5933 97.1444 21.7933 97.3311 22.06C97.5178 22.3 97.8511 22.5667 98.3311 22.86C98.8378 23.1267 99.5311 23.3667 100.411 23.58C101.318 23.7667 102.504 23.86 103.971 23.86C105.838 23.86 107.344 23.62 108.491 23.14C109.638 22.66 110.518 22.0867 111.131 21.42C111.744 20.7267 112.144 20.02 112.331 19.3C112.544 18.5533 112.651 17.9133 112.651 17.38V17.22C112.438 17.38 112.091 17.62 111.611 17.94C111.131 18.2333 110.424 18.54 109.491 18.86C108.584 19.18 107.424 19.46 106.011 19.7C104.598 19.94 102.864 20.06 100.811 20.06H100.291C97.1978 20.06 94.6111 19.8067 92.5311 19.3C90.4778 18.7933 88.8244 18.1133 87.5711 17.26C86.3444 16.4067 85.4644 15.42 84.9311 14.3C84.4244 13.1533 84.1711 11.9533 84.1711 10.7V10.34C84.1711 9.56667 84.2511 8.78 84.4111 7.98C84.5711 7.18 84.8911 6.40666 85.3711 5.66C85.8511 4.88667 86.5178 4.18 87.3711 3.54C88.2244 2.87333 89.3311 2.3 90.6911 1.82C92.0511 1.31333 93.7178 0.913331 95.6911 0.619998C97.6644 0.326666 99.9978 0.179999 102.691 0.179999H104.491C107.264 0.179999 109.664 0.393332 111.691 0.819998C113.744 1.22 115.504 1.78 116.971 2.5C118.438 3.22 119.638 4.07333 120.571 5.06C121.504 6.02 122.238 7.04667 122.771 8.14C123.304 9.23333 123.664 10.38 123.851 11.58C124.064 12.7533 124.171 13.9 124.171 15.02V15.98C124.171 17.02 124.078 18.1267 123.891 19.3C123.704 20.4467 123.358 21.58 122.851 22.7C122.371 23.82 121.678 24.8867 120.771 25.9C119.891 26.9133 118.744 27.8067 117.331 28.58C115.944 29.3533 114.251 29.9667 112.251 30.42C110.251 30.8733 107.891 31.1 105.171 31.1H103.451ZM181.799 16.18C181.799 17.0867 181.706 18.0867 181.519 19.18C181.333 20.2467 180.973 21.34 180.439 22.46C179.933 23.5533 179.199 24.62 178.239 25.66C177.279 26.6733 176.026 27.5933 174.479 28.42C172.933 29.22 171.039 29.86 168.799 30.34C166.586 30.82 163.959 31.06 160.919 31.06H159.119C156.053 31.06 153.413 30.82 151.199 30.34C148.986 29.86 147.093 29.22 145.519 28.42C143.973 27.5933 142.719 26.6733 141.759 25.66C140.799 24.62 140.053 23.5533 139.519 22.46C139.013 21.34 138.666 20.2467 138.479 19.18C138.293 18.0867 138.199 17.0867 138.199 16.18V14.98C138.199 14.0733 138.293 13.0733 138.479 11.98C138.666 10.8867 139.013 9.79333 139.519 8.7C140.053 7.60667 140.799 6.55333 141.759 5.54C142.719 4.5 143.973 3.59333 145.519 2.82C147.093 2.02 148.986 1.38 151.199 0.9C153.413 0.419999 156.053 0.179999 159.119 0.179999H160.919C163.959 0.179999 166.586 0.419999 168.799 0.9C171.039 1.38 172.933 2.02 174.479 2.82C176.026 3.59333 177.279 4.5 178.239 5.54C179.199 6.55333 179.933 7.60667 180.439 8.7C180.973 9.79333 181.333 10.8867 181.519 11.98C181.706 13.0733 181.799 14.0733 181.799 14.98V16.18ZM169.999 15.22C169.999 14.4467 169.853 13.6467 169.559 12.82C169.266 11.9933 168.746 11.2333 167.999 10.54C167.253 9.84667 166.226 9.28667 164.919 8.86C163.639 8.40667 161.999 8.18 159.999 8.18C157.946 8.18 156.266 8.40667 154.959 8.86C153.653 9.28667 152.626 9.84667 151.879 10.54C151.159 11.2333 150.653 11.9933 150.359 12.82C150.093 13.6467 149.959 14.4467 149.959 15.22V15.7C149.959 16.4733 150.106 17.2867 150.399 18.14C150.693 18.9933 151.213 19.78 151.959 20.5C152.706 21.22 153.733 21.82 155.039 22.3C156.346 22.7533 157.999 22.98 159.999 22.98C161.999 22.98 163.639 22.7533 164.919 22.3C166.226 21.82 167.253 21.2333 167.999 20.54C168.746 19.82 169.266 19.0333 169.559 18.18C169.853 17.3267 169.999 16.5133 169.999 15.74V15.22ZM227.229 16.18C227.229 17.0867 227.136 18.0867 226.949 19.18C226.762 20.2467 226.402 21.34 225.869 22.46C225.362 23.5533 224.629 24.62 223.669 25.66C222.709 26.6733 221.456 27.5933 219.909 28.42C218.362 29.22 216.469 29.86 214.229 30.34C212.016 30.82 209.389 31.06 206.349 31.06H204.549C201.482 31.06 198.842 30.82 196.629 30.34C194.416 29.86 192.522 29.22 190.949 28.42C189.402 27.5933 188.149 26.6733 187.189 25.66C186.229 24.62 185.482 23.5533 184.949 22.46C184.442 21.34 184.096 20.2467 183.909 19.18C183.722 18.0867 183.629 17.0867 183.629 16.18V14.98C183.629 14.0733 183.722 13.0733 183.909 11.98C184.096 10.8867 184.442 9.79333 184.949 8.7C185.482 7.60667 186.229 6.55333 187.189 5.54C188.149 4.5 189.402 3.59333 190.949 2.82C192.522 2.02 194.416 1.38 196.629 0.9C198.842 0.419999 201.482 0.179999 204.549 0.179999H206.349C209.389 0.179999 212.016 0.419999 214.229 0.9C216.469 1.38 218.362 2.02 219.909 2.82C221.456 3.59333 222.709 4.5 223.669 5.54C224.629 6.55333 225.362 7.60667 225.869 8.7C226.402 9.79333 226.762 10.8867 226.949 11.98C227.136 13.0733 227.229 14.0733 227.229 14.98V16.18ZM215.429 15.22C215.429 14.4467 215.282 13.6467 214.989 12.82C214.696 11.9933 214.176 11.2333 213.429 10.54C212.682 9.84667 211.656 9.28667 210.349 8.86C209.069 8.40667 207.429 8.18 205.429 8.18C203.376 8.18 201.696 8.40667 200.389 8.86C199.082 9.28667 198.056 9.84667 197.309 10.54C196.589 11.2333 196.082 11.9933 195.789 12.82C195.522 13.6467 195.389 14.4467 195.389 15.22V15.7C195.389 16.4733 195.536 17.2867 195.829 18.14C196.122 18.9933 196.642 19.78 197.389 20.5C198.136 21.22 199.162 21.82 200.469 22.3C201.776 22.7533 203.429 22.98 205.429 22.98C207.429 22.98 209.069 22.7533 210.349 22.3C211.656 21.82 212.682 21.2333 213.429 20.54C214.176 19.82 214.696 19.0333 214.989 18.18C215.282 17.3267 215.429 16.5133 215.429 15.74V15.22ZM272.659 16.18C272.659 17.0867 272.565 18.0867 272.379 19.18C272.192 20.2467 271.832 21.34 271.299 22.46C270.792 23.5533 270.059 24.62 269.099 25.66C268.139 26.6733 266.885 27.5933 265.339 28.42C263.792 29.22 261.899 29.86 259.659 30.34C257.445 30.82 254.819 31.06 251.779 31.06H249.979C246.912 31.06 244.272 30.82 242.059 30.34C239.845 29.86 237.952 29.22 236.379 28.42C234.832 27.5933 233.579 26.6733 232.619 25.66C231.659 24.62 230.912 23.5533 230.379 22.46C229.872 21.34 229.525 20.2467 229.339 19.18C229.152 18.0867 229.059 17.0867 229.059 16.18V14.98C229.059 14.0733 229.152 13.0733 229.339 11.98C229.525 10.8867 229.872 9.79333 230.379 8.7C230.912 7.60667 231.659 6.55333 232.619 5.54C233.579 4.5 234.832 3.59333 236.379 2.82C237.952 2.02 239.845 1.38 242.059 0.9C244.272 0.419999 246.912 0.179999 249.979 0.179999H251.779C254.819 0.179999 257.445 0.419999 259.659 0.9C261.899 1.38 263.792 2.02 265.339 2.82C266.885 3.59333 268.139 4.5 269.099 5.54C270.059 6.55333 270.792 7.60667 271.299 8.7C271.832 9.79333 272.192 10.8867 272.379 11.98C272.565 13.0733 272.659 14.0733 272.659 14.98V16.18ZM260.859 15.22C260.859 14.4467 260.712 13.6467 260.419 12.82C260.125 11.9933 259.605 11.2333 258.859 10.54C258.112 9.84667 257.085 9.28667 255.779 8.86C254.499 8.40667 252.859 8.18 250.859 8.18C248.805 8.18 247.125 8.40667 245.819 8.86C244.512 9.28667 243.485 9.84667 242.739 10.54C242.019 11.2333 241.512 11.9933 241.219 12.82C240.952 13.6467 240.819 14.4467 240.819 15.22V15.7C240.819 16.4733 240.965 17.2867 241.259 18.14C241.552 18.9933 242.072 19.78 242.819 20.5C243.565 21.22 244.592 21.82 245.899 22.3C247.205 22.7533 248.859 22.98 250.859 22.98C252.859 22.98 254.499 22.7533 255.779 22.3C257.085 21.82 258.112 21.2333 258.859 20.54C259.605 19.82 260.125 19.0333 260.419 18.18C260.712 17.3267 260.859 16.5133 260.859 15.74V15.22ZM316.728 11.22C316.728 12.58 316.502 13.86 316.048 15.06C315.595 16.26 314.822 17.3133 313.728 18.22C312.662 19.1267 311.222 19.8467 309.408 20.38C307.595 20.9133 305.328 21.18 302.608 21.18H289.128V23.14H304.728V26.66H289.128V30.5H277.808V26.66H273.808V23.14H277.808V21.18H273.808V17.7H277.808V0.739999H302.608C305.355 0.739999 307.635 0.993333 309.448 1.5C311.262 2.00667 312.702 2.71333 313.768 3.62C314.862 4.5 315.622 5.54 316.048 6.74C316.502 7.94 316.728 9.22 316.728 10.58V11.22ZM289.128 14.7H301.208C302.542 14.7 303.502 14.42 304.088 13.86C304.675 13.2733 304.968 12.4867 304.968 11.5V11.38C304.968 10.3933 304.675 9.62 304.088 9.06C303.528 8.47333 302.568 8.18 301.208 8.18H289.128V14.7Z" fill="url(#paint0_angular_72_294)"/>
<path d="M2.03608 77.5V62.974H12.7821C14.3301 62.974 15.6351 63.046 16.6971 63.19C17.7591 63.334 18.6141 63.55 19.2621 63.838C19.9101 64.126 20.3691 64.486 20.6391 64.918C20.9271 65.332 21.0711 65.809 21.0711 66.349V66.619C21.0711 67.411 20.7741 68.059 20.1801 68.563C19.6041 69.067 18.8121 69.436 17.8041 69.67C18.3081 69.778 18.7941 69.931 19.2621 70.129C19.7481 70.309 20.1711 70.543 20.5311 70.831C20.9091 71.119 21.2061 71.461 21.4221 71.857C21.6381 72.235 21.7461 72.658 21.7461 73.126V73.396C21.7461 73.972 21.6111 74.512 21.3411 75.016C21.0891 75.502 20.6661 75.934 20.0721 76.312C19.4961 76.672 18.7311 76.96 17.7771 77.176C16.8411 77.392 15.6891 77.5 14.3211 77.5H2.03608ZM12.4851 68.347C13.4211 68.347 14.0601 68.257 14.4021 68.077C14.7621 67.897 14.9421 67.627 14.9421 67.267V67.186C14.9421 66.844 14.7621 66.592 14.4021 66.43C14.0601 66.25 13.4121 66.16 12.4581 66.16H8.05708V68.347H12.4851ZM13.0251 74.233C14.7531 74.233 15.6171 73.765 15.6171 72.829V72.694C15.6171 71.83 14.7441 71.398 12.9981 71.398H8.05708V74.233H13.0251ZM29.2204 69.184V77.5H23.6044V62.974H30.8944L36.3214 71.371L41.8564 62.974H48.9034V77.5H42.8824V69.265L37.5364 77.5H34.5664L29.2204 69.184ZM61.55 65.944C60.038 65.944 58.913 66.16 58.175 66.592C57.437 67.024 56.951 67.627 56.717 68.401H66.437C66.239 67.627 65.762 67.024 65.006 66.592C64.25 66.16 63.107 65.944 61.577 65.944H61.55ZM72.431 72.397C72.431 72.883 72.314 73.45 72.08 74.098C71.864 74.728 71.405 75.331 70.703 75.907C70.001 76.465 68.993 76.942 67.679 77.338C66.365 77.716 64.628 77.905 62.468 77.905H60.929C58.985 77.905 57.356 77.698 56.042 77.284C54.746 76.87 53.702 76.321 52.91 75.637C52.118 74.935 51.551 74.143 51.209 73.261C50.867 72.361 50.696 71.434 50.696 70.48V69.886C50.696 68.95 50.849 68.05 51.155 67.186C51.479 66.304 52.019 65.521 52.775 64.837C53.549 64.153 54.584 63.604 55.88 63.19C57.176 62.776 58.805 62.569 60.767 62.569H62.414C64.538 62.569 66.257 62.812 67.571 63.298C68.903 63.784 69.929 64.405 70.649 65.161C71.387 65.917 71.882 66.763 72.134 67.699C72.386 68.617 72.512 69.517 72.512 70.399V71.398H56.609C56.789 72.244 57.275 72.928 58.067 73.45C58.859 73.972 60.083 74.233 61.739 74.233H61.766C62.756 74.233 63.557 74.152 64.169 73.99C64.781 73.828 65.258 73.648 65.6 73.45C65.942 73.234 66.167 73.027 66.275 72.829C66.401 72.613 66.473 72.46 66.491 72.37H72.431V72.397ZM83.6286 77.905C81.5586 77.905 79.8666 77.671 78.5526 77.203C77.2386 76.717 76.2036 76.114 75.4476 75.394C74.7096 74.656 74.1966 73.846 73.9086 72.964C73.6386 72.082 73.5036 71.236 73.5036 70.426V69.886C73.5036 69.076 73.6386 68.239 73.9086 67.375C74.1966 66.511 74.7096 65.728 75.4476 65.026C76.1856 64.306 77.2116 63.721 78.5256 63.271C79.8396 62.803 81.5316 62.569 83.6016 62.569H85.1406C86.6526 62.569 87.9486 62.686 89.0286 62.92C90.1266 63.136 91.0536 63.424 91.8096 63.784C92.5656 64.144 93.1776 64.558 93.6456 65.026C94.1136 65.476 94.4736 65.935 94.7256 66.403C94.9776 66.871 95.1396 67.33 95.2116 67.78C95.3016 68.212 95.3466 68.59 95.3466 68.914V68.995H89.1636C89.1276 68.851 89.0466 68.635 88.9206 68.347C88.8126 68.059 88.5876 67.771 88.2456 67.483C87.9216 67.177 87.4446 66.916 86.8146 66.7C86.2026 66.484 85.3836 66.376 84.3576 66.376H84.2766C83.3946 66.376 82.6566 66.475 82.0626 66.673C81.4866 66.871 81.0186 67.141 80.6586 67.483C80.2986 67.825 80.0376 68.212 79.8756 68.644C79.7316 69.076 79.6596 69.517 79.6596 69.967V70.156C79.6596 70.642 79.7316 71.119 79.8756 71.587C80.0376 72.055 80.2986 72.469 80.6586 72.829C81.0186 73.189 81.4956 73.486 82.0896 73.72C82.6836 73.936 83.4126 74.044 84.2766 74.044H84.3576C85.3656 74.044 86.1756 73.936 86.7876 73.72C87.4176 73.486 87.9036 73.225 88.2456 72.937C88.5876 72.631 88.8126 72.334 88.9206 72.046C89.0466 71.74 89.1276 71.515 89.1636 71.371H95.3466V71.425C95.3466 71.767 95.3106 72.163 95.2386 72.613C95.1666 73.063 95.0046 73.531 94.7526 74.017C94.5186 74.485 94.1676 74.953 93.6996 75.421C93.2496 75.889 92.6466 76.312 91.8906 76.69C91.1346 77.05 90.1986 77.338 89.0826 77.554C87.9846 77.788 86.6616 77.905 85.1136 77.905H83.6286ZM101.914 66.97H95.8385V62.974H114.01V66.97H107.935V77.5H101.914V66.97ZM125.191 77.905C123.085 77.905 121.357 77.671 120.007 77.203C118.657 76.735 117.586 76.141 116.794 75.421C116.02 74.683 115.48 73.873 115.174 72.991C114.886 72.109 114.742 71.245 114.742 70.399V69.913C114.742 69.085 114.886 68.239 115.174 67.375C115.48 66.493 116.02 65.701 116.794 64.999C117.568 64.279 118.63 63.694 119.98 63.244C121.33 62.794 123.058 62.569 125.164 62.569H127.081C129.295 62.569 131.077 62.803 132.427 63.271C133.795 63.721 134.848 64.306 135.586 65.026C136.342 65.728 136.846 66.511 137.098 67.375C137.35 68.239 137.476 69.085 137.476 69.913V70.399C137.476 71.245 137.35 72.109 137.098 72.991C136.864 73.873 136.378 74.683 135.64 75.421C134.902 76.141 133.849 76.735 132.481 77.203C131.131 77.671 129.331 77.905 127.081 77.905H125.191ZM126.136 73.99C127.162 73.99 128.008 73.873 128.674 73.639C129.358 73.405 129.898 73.108 130.294 72.748C130.69 72.388 130.969 71.992 131.131 71.56C131.293 71.11 131.374 70.669 131.374 70.237V70.102C131.374 69.652 131.293 69.211 131.131 68.779C130.969 68.329 130.69 67.933 130.294 67.591C129.898 67.249 129.358 66.97 128.674 66.754C128.008 66.538 127.171 66.43 126.163 66.43H126.136C125.11 66.43 124.255 66.538 123.571 66.754C122.905 66.952 122.374 67.231 121.978 67.591C121.582 67.933 121.303 68.329 121.141 68.779C120.979 69.211 120.898 69.652 120.898 70.102V70.237C120.898 70.669 120.979 71.11 121.141 71.56C121.303 71.992 121.582 72.388 121.978 72.748C122.374 73.108 122.905 73.405 123.571 73.639C124.255 73.873 125.11 73.99 126.136 73.99ZM146.75 65.053V61.273C147.614 61.219 148.37 61.084 149.018 60.868C149.666 60.652 150.224 60.382 150.692 60.058C151.178 59.716 151.583 59.329 151.907 58.897C152.231 58.447 152.51 57.952 152.744 57.412H157.658V77.5H151.421V65.053H146.75ZM172.518 77.905C170.79 77.905 169.287 77.761 168.009 77.473C166.731 77.185 165.624 76.798 164.688 76.312C163.77 75.826 163.014 75.259 162.42 74.611C161.826 73.945 161.358 73.234 161.016 72.478C160.674 71.722 160.431 70.948 160.287 70.156C160.161 69.364 160.098 68.581 160.098 67.807V67.159C160.098 66.007 160.278 64.837 160.638 63.649C160.998 62.443 161.637 61.354 162.555 60.382C163.473 59.41 164.715 58.618 166.281 58.006C167.847 57.376 169.845 57.061 172.275 57.061H173.355C175.623 57.061 177.486 57.268 178.944 57.682C180.402 58.078 181.554 58.591 182.4 59.221C183.246 59.833 183.831 60.508 184.155 61.246C184.479 61.984 184.641 62.686 184.641 63.352V63.46H178.161C178.125 63.406 178.044 63.289 177.918 63.109C177.81 62.911 177.567 62.713 177.189 62.515C176.829 62.299 176.298 62.11 175.596 61.948C174.912 61.786 173.985 61.705 172.815 61.705C171.357 61.705 170.205 61.885 169.359 62.245C168.513 62.605 167.865 63.037 167.415 63.541C166.983 64.045 166.704 64.567 166.578 65.107C166.452 65.629 166.389 66.061 166.389 66.403V66.511C166.551 66.403 166.785 66.241 167.091 66.025C167.415 65.809 167.892 65.593 168.522 65.377C169.152 65.161 169.962 64.972 170.952 64.81C171.96 64.648 173.22 64.567 174.732 64.567H175.083C177.189 64.567 178.917 64.747 180.267 65.107C181.617 65.449 182.679 65.908 183.453 66.484C184.227 67.06 184.758 67.726 185.046 68.482C185.352 69.22 185.505 69.985 185.505 70.777V71.02C185.505 71.758 185.361 72.532 185.073 73.342C184.803 74.152 184.245 74.899 183.399 75.583C182.553 76.249 181.356 76.807 179.808 77.257C178.278 77.689 176.244 77.905 173.706 77.905H172.518ZM167.199 71.02C167.199 71.254 167.271 71.506 167.415 71.776C167.559 72.046 167.847 72.298 168.279 72.532C168.711 72.766 169.305 72.964 170.061 73.126C170.835 73.27 171.843 73.342 173.085 73.342C174.381 73.342 175.407 73.27 176.163 73.126C176.937 72.982 177.522 72.802 177.918 72.586C178.332 72.352 178.602 72.109 178.728 71.857C178.854 71.587 178.917 71.335 178.917 71.101V70.993C178.917 70.741 178.854 70.489 178.728 70.237C178.602 69.967 178.332 69.724 177.918 69.508C177.522 69.292 176.937 69.121 176.163 68.995C175.407 68.851 174.381 68.779 173.085 68.779C171.843 68.779 170.835 68.842 170.061 68.968C169.287 69.094 168.684 69.265 168.252 69.481C167.838 69.679 167.559 69.913 167.415 70.183C167.271 70.435 167.199 70.687 167.199 70.939V71.02ZM204.74 63.865C204.74 63.631 204.659 63.388 204.497 63.136C204.353 62.866 204.065 62.623 203.633 62.407C203.219 62.191 202.625 62.011 201.851 61.867C201.095 61.723 200.096 61.651 198.854 61.651C197.576 61.651 196.55 61.723 195.776 61.867C195.02 62.011 194.435 62.191 194.021 62.407C193.625 62.623 193.364 62.866 193.238 63.136C193.112 63.388 193.049 63.631 193.049 63.865V63.946C193.049 64.198 193.112 64.459 193.238 64.729C193.364 64.999 193.625 65.242 194.021 65.458C194.435 65.674 195.02 65.854 195.776 65.998C196.55 66.142 197.576 66.214 198.854 66.214C200.114 66.214 201.131 66.142 201.905 65.998C202.679 65.854 203.273 65.674 203.687 65.458C204.101 65.224 204.38 64.981 204.524 64.729C204.668 64.459 204.74 64.198 204.74 63.946V63.865ZM198.746 77.905C196.514 77.905 194.66 77.698 193.184 77.284C191.726 76.87 190.556 76.357 189.674 75.745C188.81 75.115 188.198 74.431 187.838 73.693C187.478 72.955 187.298 72.262 187.298 71.614V71.506H193.805C193.823 71.578 193.895 71.713 194.021 71.911C194.147 72.091 194.39 72.289 194.75 72.505C195.128 72.703 195.659 72.883 196.343 73.045C197.045 73.189 197.981 73.261 199.151 73.261C200.591 73.261 201.734 73.081 202.58 72.721C203.426 72.361 204.065 71.929 204.497 71.425C204.947 70.921 205.235 70.408 205.361 69.886C205.487 69.346 205.55 68.905 205.55 68.563V68.482C205.406 68.59 205.172 68.752 204.848 68.968C204.524 69.184 204.056 69.4 203.444 69.616C202.832 69.832 202.049 70.021 201.095 70.183C200.141 70.345 198.962 70.426 197.558 70.426H197.207C195.101 70.426 193.355 70.255 191.969 69.913C190.583 69.553 189.476 69.085 188.648 68.509C187.838 67.933 187.262 67.267 186.92 66.511C186.596 65.755 186.434 64.981 186.434 64.189V63.946C186.434 63.46 186.479 62.947 186.569 62.407C186.677 61.867 186.875 61.345 187.163 60.841C187.451 60.337 187.856 59.86 188.378 59.41C188.918 58.942 189.62 58.537 190.484 58.195C191.366 57.835 192.428 57.556 193.67 57.358C194.93 57.16 196.424 57.061 198.152 57.061H199.34C201.842 57.061 203.903 57.34 205.523 57.898C207.143 58.456 208.421 59.203 209.357 60.139C210.293 61.075 210.941 62.155 211.301 63.379C211.679 64.585 211.868 65.845 211.868 67.159V67.807C211.868 68.995 211.697 70.192 211.355 71.398C211.013 72.586 210.392 73.666 209.492 74.638C208.61 75.592 207.386 76.375 205.82 76.987C204.272 77.599 202.274 77.905 199.826 77.905H198.746ZM249.96 67.807C249.96 68.383 249.897 69.04 249.771 69.778C249.663 70.498 249.438 71.236 249.096 71.992C248.754 72.73 248.268 73.45 247.638 74.152C247.026 74.854 246.216 75.484 245.208 76.042C244.218 76.582 242.994 77.023 241.536 77.365C240.096 77.689 238.386 77.851 236.406 77.851H235.218C233.238 77.851 231.528 77.689 230.088 77.365C228.648 77.023 227.424 76.582 226.416 76.042C225.426 75.484 224.616 74.854 223.986 74.152C223.356 73.45 222.87 72.73 222.528 71.992C222.186 71.236 221.952 70.498 221.826 69.778C221.718 69.058 221.664 68.401 221.664 67.807V66.997C221.664 66.403 221.718 65.746 221.826 65.026C221.952 64.306 222.186 63.577 222.528 62.839C222.87 62.101 223.356 61.39 223.986 60.706C224.616 60.004 225.426 59.383 226.416 58.843C227.424 58.303 228.648 57.871 230.088 57.547C231.528 57.223 233.238 57.061 235.218 57.061H236.406C238.386 57.061 240.096 57.223 241.536 57.547C242.976 57.871 244.2 58.303 245.208 58.843C246.216 59.383 247.026 60.004 247.638 60.706C248.268 61.39 248.754 62.101 249.096 62.839C249.438 63.577 249.663 64.306 249.771 65.026C249.897 65.746 249.96 66.403 249.96 66.997V67.807ZM243.372 67.186C243.372 66.61 243.264 66.016 243.048 65.404C242.85 64.792 242.463 64.234 241.887 63.73C241.329 63.208 240.555 62.785 239.565 62.461C238.593 62.119 237.342 61.948 235.812 61.948C234.246 61.948 232.968 62.119 231.978 62.461C231.006 62.785 230.241 63.208 229.683 63.73C229.125 64.234 228.747 64.792 228.549 65.404C228.351 66.016 228.252 66.61 228.252 67.186V67.51C228.252 68.086 228.36 68.689 228.576 69.319C228.792 69.949 229.179 70.534 229.737 71.074C230.295 71.614 231.06 72.064 232.032 72.424C233.022 72.766 234.282 72.937 235.812 72.937C237.342 72.937 238.593 72.766 239.565 72.424C240.555 72.082 241.329 71.65 241.887 71.128C242.445 70.588 242.832 70.003 243.048 69.373C243.264 68.743 243.372 68.14 243.372 67.564V67.186ZM279.702 67.807C279.702 68.383 279.639 69.04 279.513 69.778C279.405 70.498 279.18 71.236 278.838 71.992C278.496 72.73 278.01 73.45 277.38 74.152C276.768 74.854 275.958 75.484 274.95 76.042C273.96 76.582 272.736 77.023 271.278 77.365C269.838 77.689 268.128 77.851 266.148 77.851H264.96C262.98 77.851 261.27 77.689 259.83 77.365C258.39 77.023 257.166 76.582 256.158 76.042C255.168 75.484 254.358 74.854 253.728 74.152C253.098 73.45 252.612 72.73 252.27 71.992C251.928 71.236 251.694 70.498 251.568 69.778C251.46 69.058 251.406 68.401 251.406 67.807V66.997C251.406 66.403 251.46 65.746 251.568 65.026C251.694 64.306 251.928 63.577 252.27 62.839C252.612 62.101 253.098 61.39 253.728 60.706C254.358 60.004 255.168 59.383 256.158 58.843C257.166 58.303 258.39 57.871 259.83 57.547C261.27 57.223 262.98 57.061 264.96 57.061H266.148C268.128 57.061 269.838 57.223 271.278 57.547C272.718 57.871 273.942 58.303 274.95 58.843C275.958 59.383 276.768 60.004 277.38 60.706C278.01 61.39 278.496 62.101 278.838 62.839C279.18 63.577 279.405 64.306 279.513 65.026C279.639 65.746 279.702 66.403 279.702 66.997V67.807ZM273.114 67.186C273.114 66.61 273.006 66.016 272.79 65.404C272.592 64.792 272.205 64.234 271.629 63.73C271.071 63.208 270.297 62.785 269.307 62.461C268.335 62.119 267.084 61.948 265.554 61.948C263.988 61.948 262.71 62.119 261.72 62.461C260.748 62.785 259.983 63.208 259.425 63.73C258.867 64.234 258.489 64.792 258.291 65.404C258.093 66.016 257.994 66.61 257.994 67.186V67.51C257.994 68.086 258.102 68.689 258.318 69.319C258.534 69.949 258.921 70.534 259.479 71.074C260.037 71.614 260.802 72.064 261.774 72.424C262.764 72.766 264.024 72.937 265.554 72.937C267.084 72.937 268.335 72.766 269.307 72.424C270.297 72.082 271.071 71.65 271.629 71.128C272.187 70.588 272.574 70.003 272.79 69.373C273.006 68.743 273.114 68.14 273.114 67.564V67.186ZM309.444 67.807C309.444 68.383 309.381 69.04 309.255 69.778C309.147 70.498 308.922 71.236 308.58 71.992C308.238 72.73 307.752 73.45 307.122 74.152C306.51 74.854 305.7 75.484 304.692 76.042C303.702 76.582 302.478 77.023 301.02 77.365C299.58 77.689 297.87 77.851 295.89 77.851H294.702C292.722 77.851 291.012 77.689 289.572 77.365C288.132 77.023 286.908 76.582 285.9 76.042C284.91 75.484 284.1 74.854 283.47 74.152C282.84 73.45 282.354 72.73 282.012 71.992C281.67 71.236 281.436 70.498 281.31 69.778C281.202 69.058 281.148 68.401 281.148 67.807V66.997C281.148 66.403 281.202 65.746 281.31 65.026C281.436 64.306 281.67 63.577 282.012 62.839C282.354 62.101 282.84 61.39 283.47 60.706C284.1 60.004 284.91 59.383 285.9 58.843C286.908 58.303 288.132 57.871 289.572 57.547C291.012 57.223 292.722 57.061 294.702 57.061H295.89C297.87 57.061 299.58 57.223 301.02 57.547C302.46 57.871 303.684 58.303 304.692 58.843C305.7 59.383 306.51 60.004 307.122 60.706C307.752 61.39 308.238 62.101 308.58 62.839C308.922 63.577 309.147 64.306 309.255 65.026C309.381 65.746 309.444 66.403 309.444 66.997V67.807ZM302.856 67.186C302.856 66.61 302.748 66.016 302.532 65.404C302.334 64.792 301.947 64.234 301.371 63.73C300.813 63.208 300.039 62.785 299.049 62.461C298.077 62.119 296.826 61.948 295.296 61.948C293.73 61.948 292.452 62.119 291.462 62.461C290.49 62.785 289.725 63.208 289.167 63.73C288.609 64.234 288.231 64.792 288.033 65.404C287.835 66.016 287.736 66.61 287.736 67.186V67.51C287.736 68.086 287.844 68.689 288.06 69.319C288.276 69.949 288.663 70.534 289.221 71.074C289.779 71.614 290.544 72.064 291.516 72.424C292.506 72.766 293.766 72.937 295.296 72.937C296.826 72.937 298.077 72.766 299.049 72.424C300.039 72.082 300.813 71.65 301.371 71.128C301.929 70.588 302.316 70.003 302.532 69.373C302.748 68.743 302.856 68.14 302.856 67.564V67.186ZM337.702 64.216C337.702 65.116 337.549 65.971 337.243 66.781C336.937 67.573 336.424 68.266 335.704 68.86C334.984 69.454 334.021 69.931 332.815 70.291C331.627 70.633 330.133 70.804 328.333 70.804H319.558V72.289H329.71V74.665H319.558V77.5H313.267V74.665H310.297V72.289H313.267V70.804H310.297V68.428H313.267V57.412H328.333C330.133 57.412 331.636 57.583 332.842 57.925C334.048 58.249 335.011 58.708 335.731 59.302C336.451 59.896 336.955 60.589 337.243 61.381C337.549 62.173 337.702 63.028 337.702 63.946V64.216ZM319.558 66.943H328.225C329.215 66.943 329.944 66.736 330.412 66.322C330.898 65.908 331.141 65.305 331.141 64.513V64.432C331.141 63.64 330.907 63.037 330.439 62.623C329.971 62.191 329.233 61.975 328.225 61.975H319.558V66.943Z" fill="#6D6D6D"/>
<path d="M122.506 47.5L347.494 77.587" stroke="#FB2C4B" stroke-width="4" stroke-linecap="round"/>
<defs>
<radialGradient id="paint0_angular_72_294" cx="0" cy="0" r="1" gradientUnits="userSpaceOnUse" gradientTransform="translate(169.506 39) rotate(90) scale(38.5 169)">
<stop stop-color="#D1EDFF"/>
<stop offset="1" stop-color="#49B8FF"/>
</radialGradient>
</defs>
</svg>
