<svg width="325" height="42" viewBox="0 0 325 42" fill="none" xmlns="http://www.w3.org/2000/svg">
<g filter="url(#filter0_d_78_23)">
<path d="M38.4517 2.24V8.92C38.1317 9.29333 37.7184 9.76 37.2117 10.32C36.7051 10.88 36.1317 11.52 35.4917 12.24C34.8784 12.96 34.2117 13.76 33.4917 14.64C32.7717 15.52 32.0517 16.4533 31.3317 17.44C30.2651 18.88 29.4117 20.2133 28.7717 21.44C28.1317 22.6667 27.6384 23.84 27.2917 24.96C26.9451 26.08 26.7184 27.2 26.6117 28.32C26.5051 29.4133 26.4517 30.56 26.4517 31.76V32H13.7317V28.44C13.7317 27.3733 13.8384 26.3733 14.0517 25.44C14.2651 24.5067 14.6517 23.56 15.2117 22.6C15.7717 21.64 16.5184 20.6267 17.4517 19.56C18.4117 18.4933 19.6251 17.2933 21.0917 15.96C23.1717 14.12 24.7984 12.7067 25.9717 11.72C27.1451 10.7067 27.7584 10.0267 27.8117 9.68H12.2517V15.44H1.25172V2.24H38.4517ZM58.3114 32.56C55.5381 32.56 53.1647 32.3867 51.1914 32.04C49.2447 31.6933 47.6047 31.24 46.2714 30.68C44.9647 30.12 43.9114 29.4933 43.1114 28.8C42.3381 28.08 41.7514 27.36 41.3514 26.64C40.9514 25.92 40.6847 25.2267 40.5514 24.56C40.4447 23.8667 40.3914 23.28 40.3914 22.8V22.52H52.1914C52.2181 22.6267 52.2981 22.8267 52.4314 23.12C52.5914 23.4133 52.8981 23.72 53.3514 24.04C53.8314 24.3333 54.5247 24.6 55.4314 24.84C56.3647 25.08 57.6314 25.2 59.2314 25.2C60.6714 25.2 61.8314 25.1067 62.7114 24.92C63.5914 24.7067 64.2714 24.44 64.7514 24.12C65.2314 23.8 65.5514 23.44 65.7114 23.04C65.8714 22.6133 65.9514 22.2 65.9514 21.8V21.64C65.9514 21.24 65.8714 20.84 65.7114 20.44C65.5514 20.04 65.2314 19.68 64.7514 19.36C64.2714 19.04 63.5914 18.7867 62.7114 18.6C61.8314 18.3867 60.6714 18.28 59.2314 18.28C57.6581 18.28 56.4047 18.3867 55.4714 18.6C54.5381 18.8133 53.8314 19.0667 53.3514 19.36C52.8714 19.6267 52.5514 19.88 52.3914 20.12C52.2314 20.36 52.1381 20.52 52.1114 20.6H40.9514V2.24H75.6714V9.48H52.1914V14.32C52.3514 14.1867 52.6581 13.9733 53.1114 13.68C53.5647 13.3867 54.2047 13.0933 55.0314 12.8C55.8847 12.5067 56.9381 12.2533 58.1914 12.04C59.4447 11.8 60.9514 11.68 62.7114 11.68H63.0714C66.0581 11.68 68.4981 11.9467 70.3914 12.48C72.3114 13.0133 73.8181 13.7333 74.9114 14.64C76.0047 15.52 76.7514 16.56 77.1514 17.76C77.5514 18.96 77.7514 20.2267 77.7514 21.56V21.8C77.7514 22.6267 77.6581 23.4667 77.4714 24.32C77.2847 25.1733 76.9514 26 76.4714 26.8C75.9914 27.5733 75.3247 28.32 74.4714 29.04C73.6447 29.7333 72.5781 30.3467 71.2714 30.88C69.9914 31.3867 68.4447 31.7867 66.6314 32.08C64.8181 32.4 62.6847 32.56 60.2314 32.56H58.3114ZM122.969 17.68C122.969 18.5867 122.876 19.5867 122.689 20.68C122.503 21.7467 122.143 22.84 121.609 23.96C121.103 25.0533 120.369 26.12 119.409 27.16C118.449 28.1733 117.196 29.0933 115.649 29.92C114.103 30.72 112.209 31.36 109.969 31.84C107.756 32.32 105.129 32.56 102.089 32.56H100.289C97.2226 32.56 94.5826 32.32 92.3692 31.84C90.1559 31.36 88.2626 30.72 86.6892 29.92C85.1426 29.0933 83.8892 28.1733 82.9292 27.16C81.9692 26.12 81.2226 25.0533 80.6892 23.96C80.1826 22.84 79.8359 21.7467 79.6492 20.68C79.4626 19.5867 79.3692 18.5867 79.3692 17.68V16.48C79.3692 15.5733 79.4626 14.5733 79.6492 13.48C79.8359 12.3867 80.1826 11.2933 80.6892 10.2C81.2226 9.10667 81.9692 8.05333 82.9292 7.04C83.8892 6 85.1426 5.09333 86.6892 4.32C88.2626 3.52 90.1559 2.88 92.3692 2.4C94.5826 1.92 97.2226 1.68 100.289 1.68H102.089C105.129 1.68 107.756 1.92 109.969 2.4C112.209 2.88 114.103 3.52 115.649 4.32C117.196 5.09333 118.449 6 119.409 7.04C120.369 8.05333 121.103 9.10667 121.609 10.2C122.143 11.2933 122.503 12.3867 122.689 13.48C122.876 14.5733 122.969 15.5733 122.969 16.48V17.68ZM111.169 16.72C111.169 15.9467 111.023 15.1467 110.729 14.32C110.436 13.4933 109.916 12.7333 109.169 12.04C108.423 11.3467 107.396 10.7867 106.089 10.36C104.809 9.90667 103.169 9.68 101.169 9.68C99.1159 9.68 97.4359 9.90667 96.1292 10.36C94.8226 10.7867 93.7959 11.3467 93.0492 12.04C92.3292 12.7333 91.8226 13.4933 91.5292 14.32C91.2626 15.1467 91.1292 15.9467 91.1292 16.72V17.2C91.1292 17.9733 91.2759 18.7867 91.5692 19.64C91.8626 20.4933 92.3826 21.28 93.1292 22C93.8759 22.72 94.9026 23.32 96.2092 23.8C97.5159 24.2533 99.1692 24.48 101.169 24.48C103.169 24.48 104.809 24.2533 106.089 23.8C107.396 23.32 108.423 22.7333 109.169 22.04C109.916 21.32 110.436 20.5333 110.729 19.68C111.023 18.8267 111.169 18.0133 111.169 17.24V16.72ZM180.547 17.68C180.547 18.5867 180.454 19.5867 180.267 20.68C180.081 21.7467 179.721 22.84 179.187 23.96C178.681 25.0533 177.947 26.12 176.987 27.16C176.027 28.1733 174.774 29.0933 173.227 29.92C171.681 30.72 169.787 31.36 167.547 31.84C165.334 32.32 162.707 32.56 159.667 32.56H157.867C154.801 32.56 152.161 32.32 149.947 31.84C147.734 31.36 145.841 30.72 144.267 29.92C142.721 29.0933 141.467 28.1733 140.507 27.16C139.547 26.12 138.801 25.0533 138.267 23.96C137.761 22.84 137.414 21.7467 137.227 20.68C137.041 19.5867 136.947 18.5867 136.947 17.68V16.48C136.947 15.5733 137.041 14.5733 137.227 13.48C137.414 12.3867 137.761 11.2933 138.267 10.2C138.801 9.10667 139.547 8.05333 140.507 7.04C141.467 6 142.721 5.09333 144.267 4.32C145.841 3.52 147.734 2.88 149.947 2.4C152.161 1.92 154.801 1.68 157.867 1.68H159.667C162.707 1.68 165.334 1.92 167.547 2.4C169.787 2.88 171.681 3.52 173.227 4.32C174.774 5.09333 176.027 6 176.987 7.04C177.947 8.05333 178.681 9.10667 179.187 10.2C179.721 11.2933 180.081 12.3867 180.267 13.48C180.454 14.5733 180.547 15.5733 180.547 16.48V17.68ZM168.747 16.72C168.747 15.9467 168.601 15.1467 168.307 14.32C168.014 13.4933 167.494 12.7333 166.747 12.04C166.001 11.3467 164.974 10.7867 163.667 10.36C162.387 9.90667 160.747 9.68 158.747 9.68C156.694 9.68 155.014 9.90667 153.707 10.36C152.401 10.7867 151.374 11.3467 150.627 12.04C149.907 12.7333 149.401 13.4933 149.107 14.32C148.841 15.1467 148.707 15.9467 148.707 16.72V17.2C148.707 17.9733 148.854 18.7867 149.147 19.64C149.441 20.4933 149.961 21.28 150.707 22C151.454 22.72 152.481 23.32 153.787 23.8C155.094 24.2533 156.747 24.48 158.747 24.48C160.747 24.48 162.387 24.2533 163.667 23.8C164.974 23.32 166.001 22.7333 166.747 22.04C167.494 21.32 168.014 20.5333 168.307 19.68C168.601 18.8267 168.747 18.0133 168.747 17.24V16.72ZM225.977 17.68C225.977 18.5867 225.884 19.5867 225.697 20.68C225.51 21.7467 225.15 22.84 224.617 23.96C224.11 25.0533 223.377 26.12 222.417 27.16C221.457 28.1733 220.204 29.0933 218.657 29.92C217.11 30.72 215.217 31.36 212.977 31.84C210.764 32.32 208.137 32.56 205.097 32.56H203.297C200.23 32.56 197.59 32.32 195.377 31.84C193.164 31.36 191.27 30.72 189.697 29.92C188.15 29.0933 186.897 28.1733 185.937 27.16C184.977 26.12 184.23 25.0533 183.697 23.96C183.19 22.84 182.844 21.7467 182.657 20.68C182.47 19.5867 182.377 18.5867 182.377 17.68V16.48C182.377 15.5733 182.47 14.5733 182.657 13.48C182.844 12.3867 183.19 11.2933 183.697 10.2C184.23 9.10667 184.977 8.05333 185.937 7.04C186.897 6 188.15 5.09333 189.697 4.32C191.27 3.52 193.164 2.88 195.377 2.4C197.59 1.92 200.23 1.68 203.297 1.68H205.097C208.137 1.68 210.764 1.92 212.977 2.4C215.217 2.88 217.11 3.52 218.657 4.32C220.204 5.09333 221.457 6 222.417 7.04C223.377 8.05333 224.11 9.10667 224.617 10.2C225.15 11.2933 225.51 12.3867 225.697 13.48C225.884 14.5733 225.977 15.5733 225.977 16.48V17.68ZM214.177 16.72C214.177 15.9467 214.03 15.1467 213.737 14.32C213.444 13.4933 212.924 12.7333 212.177 12.04C211.43 11.3467 210.404 10.7867 209.097 10.36C207.817 9.90667 206.177 9.68 204.177 9.68C202.124 9.68 200.444 9.90667 199.137 10.36C197.83 10.7867 196.804 11.3467 196.057 12.04C195.337 12.7333 194.83 13.4933 194.537 14.32C194.27 15.1467 194.137 15.9467 194.137 16.72V17.2C194.137 17.9733 194.284 18.7867 194.577 19.64C194.87 20.4933 195.39 21.28 196.137 22C196.884 22.72 197.91 23.32 199.217 23.8C200.524 24.2533 202.177 24.48 204.177 24.48C206.177 24.48 207.817 24.2533 209.097 23.8C210.404 23.32 211.43 22.7333 212.177 22.04C212.924 21.32 213.444 20.5333 213.737 19.68C214.03 18.8267 214.177 18.0133 214.177 17.24V16.72ZM271.407 17.68C271.407 18.5867 271.313 19.5867 271.127 20.68C270.94 21.7467 270.58 22.84 270.047 23.96C269.54 25.0533 268.807 26.12 267.847 27.16C266.887 28.1733 265.633 29.0933 264.087 29.92C262.54 30.72 260.647 31.36 258.407 31.84C256.193 32.32 253.567 32.56 250.527 32.56H248.727C245.66 32.56 243.02 32.32 240.807 31.84C238.593 31.36 236.7 30.72 235.127 29.92C233.58 29.0933 232.327 28.1733 231.367 27.16C230.407 26.12 229.66 25.0533 229.127 23.96C228.62 22.84 228.273 21.7467 228.087 20.68C227.9 19.5867 227.807 18.5867 227.807 17.68V16.48C227.807 15.5733 227.9 14.5733 228.087 13.48C228.273 12.3867 228.62 11.2933 229.127 10.2C229.66 9.10667 230.407 8.05333 231.367 7.04C232.327 6 233.58 5.09333 235.127 4.32C236.7 3.52 238.593 2.88 240.807 2.4C243.02 1.92 245.66 1.68 248.727 1.68H250.527C253.567 1.68 256.193 1.92 258.407 2.4C260.647 2.88 262.54 3.52 264.087 4.32C265.633 5.09333 266.887 6 267.847 7.04C268.807 8.05333 269.54 9.10667 270.047 10.2C270.58 11.2933 270.94 12.3867 271.127 13.48C271.313 14.5733 271.407 15.5733 271.407 16.48V17.68ZM259.607 16.72C259.607 15.9467 259.46 15.1467 259.167 14.32C258.873 13.4933 258.353 12.7333 257.607 12.04C256.86 11.3467 255.833 10.7867 254.527 10.36C253.247 9.90667 251.607 9.68 249.607 9.68C247.553 9.68 245.873 9.90667 244.567 10.36C243.26 10.7867 242.233 11.3467 241.487 12.04C240.767 12.7333 240.26 13.4933 239.967 14.32C239.7 15.1467 239.567 15.9467 239.567 16.72V17.2C239.567 17.9733 239.713 18.7867 240.007 19.64C240.3 20.4933 240.82 21.28 241.567 22C242.313 22.72 243.34 23.32 244.647 23.8C245.953 24.2533 247.607 24.48 249.607 24.48C251.607 24.48 253.247 24.2533 254.527 23.8C255.833 23.32 256.86 22.7333 257.607 22.04C258.353 21.32 258.873 20.5333 259.167 19.68C259.46 18.8267 259.607 18.0133 259.607 17.24V16.72ZM315.476 12.72C315.476 14.08 315.25 15.36 314.796 16.56C314.343 17.76 313.57 18.8133 312.476 19.72C311.41 20.6267 309.97 21.3467 308.156 21.88C306.343 22.4133 304.076 22.68 301.356 22.68H287.876V24.64H303.476V28.16H287.876V32H276.556V28.16H272.556V24.64H276.556V22.68H272.556V19.2H276.556V2.24H301.356C304.103 2.24 306.383 2.49333 308.196 3C310.01 3.50667 311.45 4.21333 312.516 5.12C313.61 6 314.37 7.04 314.796 8.24C315.25 9.44 315.476 10.72 315.476 12.08V12.72ZM287.876 16.2H299.956C301.29 16.2 302.25 15.92 302.836 15.36C303.423 14.7733 303.716 13.9867 303.716 13V12.88C303.716 11.8933 303.423 11.12 302.836 10.56C302.276 9.97333 301.316 9.68 299.956 9.68H287.876V16.2Z" fill="white"/>
</g>
<defs>
<filter id="filter0_d_78_23" x="0.251709" y="0.680054" width="324.225" height="40.88" filterUnits="userSpaceOnUse" color-interpolation-filters="sRGB">
<feFlood flood-opacity="0" result="BackgroundImageFix"/>
<feColorMatrix in="SourceAlpha" type="matrix" values="0 0 0 0 0 0 0 0 0 0 0 0 0 0 0 0 0 0 127 0" result="hardAlpha"/>
<feOffset dx="4" dy="4"/>
<feGaussianBlur stdDeviation="2.5"/>
<feComposite in2="hardAlpha" operator="out"/>
<feColorMatrix type="matrix" values="0 0 0 0 0.241458 0 0 0 0 0.559497 0 0 0 0 0.7625 0 0 0 0.5 0"/>
<feBlend mode="normal" in2="BackgroundImageFix" result="effect1_dropShadow_78_23"/>
<feBlend mode="normal" in="SourceGraphic" in2="effect1_dropShadow_78_23" result="shape"/>
</filter>
</defs>
</svg>
