<svg width="29" height="29" viewBox="0 0 29 29" fill="none" xmlns="http://www.w3.org/2000/svg">
<path fill-rule="evenodd" clip-rule="evenodd" d="M14.5 29C6.49187 29 0 22.5081 0 14.5C0 6.49187 6.49187 0 14.5 0C22.5081 0 29 6.49187 29 14.5C29 22.5081 22.5081 29 14.5 29ZM15.127 10.8817C13.8283 11.4218 11.2329 12.5398 7.34055 14.2356C6.7085 14.487 6.3774 14.7329 6.34726 14.9733C6.29632 15.3796 6.80516 15.5396 7.49807 15.7575C7.59233 15.7872 7.68999 15.8179 7.79011 15.8504C8.47182 16.072 9.38885 16.3313 9.86558 16.3416C10.298 16.3509 10.7807 16.1726 11.3135 15.8067C14.9502 13.3518 16.8275 12.111 16.9454 12.0843C17.0285 12.0654 17.1437 12.0417 17.2218 12.1111C17.2999 12.1805 17.2922 12.3119 17.2839 12.3471C17.2335 12.562 15.2361 14.419 14.2025 15.3799C13.8803 15.6795 13.6517 15.892 13.6049 15.9406C13.5003 16.0493 13.3936 16.1521 13.2911 16.251C12.6577 16.8615 12.1828 17.3193 13.3174 18.067C13.8626 18.4263 14.2989 18.7234 14.7341 19.0198C15.2095 19.3435 15.6836 19.6664 16.297 20.0685C16.4533 20.171 16.6026 20.2774 16.748 20.381C17.3012 20.7754 17.7981 21.1297 18.4121 21.0732C18.7689 21.0404 19.1375 20.7049 19.3246 19.7043C19.7669 17.3397 20.6364 12.2163 20.8373 10.1051C20.8549 9.92014 20.8328 9.68341 20.815 9.57949C20.7972 9.47558 20.76 9.32752 20.625 9.21791C20.465 9.08811 20.218 9.06073 20.1076 9.06259C19.6054 9.07153 18.8349 9.33943 15.127 10.8817Z" fill="#436CEF"/>
</svg>
