<svg width="111" height="19" viewBox="0 0 111 19" fill="none" xmlns="http://www.w3.org/2000/svg">
<path d="M2.40576 12.4458V9.56494H6.76367C7.82161 9.56494 8.64355 9.29639 9.22949 8.75928C9.81543 8.21403 10.1084 7.44092 10.1084 6.43994V6.41553C10.1084 5.41455 9.81543 4.64551 9.22949 4.1084C8.64355 3.57129 7.82161 3.30273 6.76367 3.30273H2.40576V0.385254H7.65479C8.8999 0.385254 9.98226 0.637533 10.9019 1.14209C11.8296 1.63851 12.5498 2.33838 13.0625 3.2417C13.5833 4.14502 13.8438 5.19889 13.8438 6.40332V6.42773C13.8438 7.6403 13.5833 8.69824 13.0625 9.60156C12.5498 10.5049 11.8296 11.2048 10.9019 11.7012C9.98226 12.1976 8.8999 12.4458 7.65479 12.4458H2.40576ZM0.550293 18V0.385254H4.23682V18H0.550293ZM16.1753 18V0.385254H27.8452V3.4248H19.8618V7.66064H27.3936V10.5293H19.8618V14.9604H27.8452V18H16.1753ZM34.9009 18V3.4248H29.7861V0.385254H43.7144V3.4248H38.5874V18H34.9009ZM45.9116 18V0.385254H53.1992C54.5176 0.385254 55.6447 0.613118 56.5806 1.06885C57.5246 1.51644 58.2448 2.15934 58.7412 2.99756C59.2458 3.83577 59.498 4.84489 59.498 6.0249V6.04932C59.498 7.20492 59.2132 8.23438 58.6436 9.1377C58.0739 10.0329 57.2967 10.6717 56.312 11.0542L60.0229 18H55.8481L52.5645 11.6157C52.54 11.6157 52.5116 11.6157 52.479 11.6157C52.4465 11.6157 52.4139 11.6157 52.3813 11.6157H49.5981V18H45.9116ZM49.5981 8.83252H52.7964C53.716 8.83252 54.4321 8.58838 54.9448 8.1001C55.4657 7.60368 55.7261 6.92415 55.7261 6.06152V6.03711C55.7261 5.19076 55.4575 4.51937 54.9204 4.02295C54.3833 3.51839 53.659 3.26611 52.7476 3.26611H49.5981V8.83252ZM70.0083 18.3296C68.2668 18.3296 66.7612 17.9593 65.4917 17.2188C64.2222 16.4782 63.2415 15.4243 62.5498 14.0571C61.8581 12.6899 61.5122 11.0705 61.5122 9.19873V9.17432C61.5122 7.30257 61.8581 5.68717 62.5498 4.32812C63.2497 2.96094 64.2344 1.90706 65.5039 1.1665C66.7734 0.425944 68.2749 0.0556641 70.0083 0.0556641C71.7498 0.0556641 73.2554 0.430013 74.5249 1.17871C75.7944 1.91927 76.7751 2.96908 77.4668 4.32812C78.1585 5.68717 78.5044 7.30257 78.5044 9.17432V9.19873C78.5044 11.0705 78.1585 12.6899 77.4668 14.0571C76.7832 15.4162 75.8066 16.4701 74.5371 17.2188C73.2676 17.9593 71.758 18.3296 70.0083 18.3296ZM70.0083 15.2046C70.9849 15.2046 71.8271 14.9604 72.5352 14.4722C73.2432 13.9757 73.7884 13.2799 74.1709 12.3848C74.5534 11.4814 74.7446 10.4194 74.7446 9.19873V9.17432C74.7446 7.94548 74.5493 6.88346 74.1587 5.98828C73.7762 5.0931 73.231 4.40137 72.5229 3.91309C71.8149 3.4248 70.9767 3.18066 70.0083 3.18066C69.0562 3.18066 68.222 3.4248 67.5059 3.91309C66.7979 4.39323 66.2485 5.08089 65.8579 5.97607C65.4673 6.87126 65.272 7.93734 65.272 9.17432V9.19873C65.272 10.4276 65.4673 11.4937 65.8579 12.397C66.2485 13.2922 66.7979 13.9839 67.5059 14.4722C68.2139 14.9604 69.048 15.2046 70.0083 15.2046ZM85.1572 18L79.2612 0.385254H83.3628L87.3667 14.1792H87.4521L91.4561 0.385254H95.5454L89.6616 18H85.1572ZM94.2515 18L100.404 0.385254H103.639V3.81543H102.528L98.1333 18H94.2515ZM97.5596 13.7275L98.4629 10.9688H106.666L107.569 13.7275H97.5596ZM107.008 18L102.613 3.81543V0.385254H104.737L110.877 18H107.008Z" fill="black"/>
</svg>
