<svg width="99" height="17" viewBox="0 0 99 17" fill="none" xmlns="http://www.w3.org/2000/svg">
<path d="M0.976562 16V0.499023H6.82031C9.73145 0.499023 11.7939 2.50781 11.7939 5.45117V5.47266C11.7939 8.41602 9.73145 10.4678 6.82031 10.4678H2.91016V16H0.976562ZM6.32617 2.21777H2.91016V8.74902H6.32617C8.53906 8.74902 9.81738 7.53516 9.81738 5.49414V5.47266C9.81738 3.43164 8.53906 2.21777 6.32617 2.21777ZM14.9629 16V0.499023H24.5664V2.23926H16.8965V7.21289H24.1689V8.93164H16.8965V14.2598H24.5664V16H14.9629ZM32.0967 16V2.23926H27.1016V0.499023H39.0254V2.23926H34.0303V16H32.0967ZM42.0117 16V0.499023H47.9307C50.917 0.499023 52.8721 2.3252 52.8721 5.10742V5.12891C52.8721 7.27734 51.7012 8.95312 49.7568 9.56543L53.3447 16H51.0781L47.7588 9.86621H43.9453V16H42.0117ZM43.9453 8.14746H47.7588C49.7461 8.14746 50.874 7.08398 50.874 5.19336V5.17188C50.874 3.32422 49.6709 2.21777 47.6729 2.21777H43.9453V8.14746ZM62.8945 16.3652C58.4473 16.3652 55.7832 13.207 55.7832 8.25488V8.2334C55.7832 3.25977 58.5117 0.133789 62.8945 0.133789C67.2988 0.133789 70.0059 3.27051 70.0059 8.2334V8.25488C70.0059 13.1963 67.3203 16.3652 62.8945 16.3652ZM62.8945 14.582C66.0742 14.582 68.0293 12.0898 68.0293 8.25488V8.2334C68.0293 4.36621 66.0635 1.91699 62.8945 1.91699C59.7363 1.91699 57.7598 4.36621 57.7598 8.2334V8.25488C57.7598 12.0898 59.6719 14.582 62.8945 14.582ZM77.2998 16L71.585 0.499023H73.6152L78.1699 13.4971H78.3418L82.8965 0.499023H84.9268L79.2119 16H77.2998ZM85.0127 16L90.7275 0.499023H92.6396L98.3545 16H96.3242L94.7666 11.5635H88.6006L87.043 16H85.0127ZM91.5977 3.00195L89.1699 9.91992H94.1973L91.7695 3.00195H91.5977Z" fill="black"/>
</svg>
