<svg width="308" height="63" viewBox="0 0 308 63" fill="none" xmlns="http://www.w3.org/2000/svg">
<g opacity="0.5" filter="url(#filter0_d_307_10)">
<path d="M25.5715 33.977H12.688V25.851H25.5715C27.5625 25.851 29.1831 25.5269 30.4332 24.8786C31.6834 24.2073 32.5978 23.2812 33.1766 22.1005C33.7554 20.9198 34.0448 19.5886 34.0448 18.107C34.0448 16.6022 33.7554 15.2015 33.1766 13.9051C32.5978 12.6086 31.6834 11.5668 30.4332 10.7797C29.1831 9.99257 27.5625 9.59901 25.5715 9.59901H16.2996V52H5.88163V1.43829H25.5715C29.5303 1.43829 32.922 2.15597 35.7464 3.59133C38.5939 5.00354 40.7701 6.9598 42.2749 9.4601C43.7798 11.9604 44.5322 14.8195 44.5322 18.0375C44.5322 21.3018 43.7798 24.1262 42.2749 26.5108C40.7701 28.8953 38.5939 30.7358 35.7464 32.0323C32.922 33.3287 29.5303 33.977 25.5715 33.977ZM83.1591 43.874V52H56.2461V43.874H83.1591ZM59.6493 1.43829V52H49.2313V1.43829H59.6493ZM79.6517 22.0311V29.9487H56.2461V22.0311H79.6517ZM83.1244 1.43829V9.59901H56.2461V1.43829H83.1244ZM110.048 1.43829V52H99.6653V1.43829H110.048ZM125.606 1.43829V9.59901H84.3509V1.43829H125.606ZM129.055 1.43829H147.911C151.778 1.43829 155.1 2.01707 157.878 3.17461C160.679 4.33216 162.832 6.04533 164.337 8.31413C165.842 10.5829 166.594 13.3726 166.594 16.6832C166.594 19.3919 166.131 21.7185 165.205 23.6632C164.302 25.5847 163.017 27.1937 161.351 28.4902C159.707 29.7635 157.774 30.7821 155.551 31.5461L152.252 33.2824H135.861L135.792 25.1565H147.981C149.81 25.1565 151.326 24.8323 152.53 24.1841C153.734 23.5359 154.637 22.633 155.239 21.4755C155.864 20.3179 156.176 18.9751 156.176 17.4472C156.176 15.8266 155.875 14.426 155.273 13.2453C154.671 12.0646 153.757 11.1617 152.53 10.5366C151.303 9.91154 149.763 9.59901 147.911 9.59901H139.473V52H129.055V1.43829ZM157.322 52L145.793 29.4625L156.801 29.3931L168.469 51.5138V52H157.322ZM213.66 25.5384V27.9346C213.66 31.7776 213.139 35.2271 212.097 38.2831C211.055 41.339 209.585 43.9435 207.687 46.0965C205.788 48.2264 203.52 49.8585 200.88 50.9929C198.264 52.1273 195.359 52.6945 192.164 52.6945C188.992 52.6945 186.087 52.1273 183.448 50.9929C180.832 49.8585 178.563 48.2264 176.641 46.0965C174.72 43.9435 173.227 41.339 172.162 38.2831C171.12 35.2271 170.599 31.7776 170.599 27.9346V25.5384C170.599 21.6722 171.12 18.2227 172.162 15.19C173.203 12.134 174.673 9.52955 176.572 7.37651C178.493 5.22347 180.762 3.57976 183.378 2.44536C186.017 1.31096 188.923 0.743762 192.095 0.743762C195.289 0.743762 198.195 1.31096 200.811 2.44536C203.45 3.57976 205.719 5.22347 207.617 7.37651C209.539 9.52955 211.02 12.134 212.062 15.19C213.127 18.2227 213.66 21.6722 213.66 25.5384ZM203.138 27.9346V25.469C203.138 22.7835 202.894 20.4221 202.408 18.3848C201.922 16.3475 201.204 14.6343 200.255 13.2453C199.306 11.8562 198.149 10.8144 196.783 10.1199C195.417 9.40222 193.854 9.04338 192.095 9.04338C190.335 9.04338 188.772 9.40222 187.407 10.1199C186.064 10.8144 184.918 11.8562 183.969 13.2453C183.043 14.6343 182.336 16.3475 181.85 18.3848C181.364 20.4221 181.121 22.7835 181.121 25.469V27.9346C181.121 30.5969 181.364 32.9583 181.85 35.0188C182.336 37.0561 183.054 38.7808 184.003 40.193C184.952 41.5821 186.11 42.6354 187.476 43.3531C188.842 44.0708 190.405 44.4296 192.164 44.4296C193.923 44.4296 195.486 44.0708 196.852 43.3531C198.218 42.6354 199.364 41.5821 200.29 40.193C201.216 38.7808 201.922 37.0561 202.408 35.0188C202.894 32.9583 203.138 30.5969 203.138 27.9346ZM236.139 41.4432L248.05 1.43829H259.649L242.042 52H234.402L236.139 41.4432ZM225.165 1.43829L237.042 41.4432L238.847 52H231.138L213.636 1.43829H225.165ZM279.801 10.0852L266.049 52H254.972L273.759 1.43829H280.808L279.801 10.0852ZM291.226 52L277.44 10.0852L276.328 1.43829H283.447L302.339 52H291.226ZM290.601 33.1783V41.339H263.896V33.1783H290.601Z" fill="#FFB6C1"/>
</g>
<defs>
<filter id="filter0_d_307_10" x="0.881836" y="0.743652" width="306.457" height="61.9509" filterUnits="userSpaceOnUse" color-interpolation-filters="sRGB">
<feFlood flood-opacity="0" result="BackgroundImageFix"/>
<feColorMatrix in="SourceAlpha" type="matrix" values="0 0 0 0 0 0 0 0 0 0 0 0 0 0 0 0 0 0 127 0" result="hardAlpha"/>
<feOffset dy="5"/>
<feGaussianBlur stdDeviation="2.5"/>
<feComposite in2="hardAlpha" operator="out"/>
<feColorMatrix type="matrix" values="0 0 0 0 0.816667 0 0 0 0 0.816667 0 0 0 0 0.816667 0 0 0 0.25 0"/>
<feBlend mode="normal" in2="BackgroundImageFix" result="effect1_dropShadow_307_10"/>
<feBlend mode="normal" in="SourceGraphic" in2="effect1_dropShadow_307_10" result="shape"/>
</filter>
</defs>
</svg>
